<svg id="Layer_1" data-name="Layer 1" xmlns="http://www.w3.org/2000/svg" viewBox="0 0 512 512"><defs><style>.cls-1{fill:#e3aa75;}.cls-2{fill:#aa8058;}.cls-3{fill:#cdf5a0;}.cls-4{fill:#9ab878;}.cls-5{fill:#aaa9aa;}.cls-6{fill:#97e5b6;}.cls-7{fill:#b99e6d;}.cls-8{fill:#f7d291;}.cls-9{fill:#71ac89;}</style></defs><title>automated</title><path d="M256,0C114.51,0,0,114.5,0,256S114.5,512,256,512,512,397.5,512,256,397.5,0,256,0Zm0,477.87C133.66,477.87,34.13,378.34,34.13,256S133.66,34.13,256,34.13,477.87,133.66,477.87,256,378.34,477.87,256,477.87Z"/><path class="cls-1" d="M124,255H236.29v46.77H124Z"/><path class="cls-1" d="M124,348.55H376.61v46.77H124Z"/><path class="cls-2" d="M348.55,348.55h28.06v46.77H348.55Z"/><path class="cls-2" d="M170.81,348.55h18.71v46.77H170.81Z"/><path class="cls-3" d="M114.68,301.77H367.26v46.78H114.68Z"/><path class="cls-4" d="M339.19,301.77h28.07v46.78H339.19Z"/><path class="cls-4" d="M161.45,301.77h18.71v46.78H161.45Z"/><path class="cls-2" d="M170.81,255h18.71v46.77H170.81Z"/><path class="cls-5" d="M208.23,169.94a37.7,37.7,0,0,0-28.07-36.55v32.74a9.36,9.36,0,0,1-18.71,0V133.39a37.83,37.83,0,0,0-4.68,71.51V255h28.07V204.9A37.72,37.72,0,0,0,208.23,169.94Z"/><path class="cls-6" d="M236.29,114.68h159V311.13h-159Z"/><path class="cls-7" d="M283.06,133.39h93.55v37.42H283.06Z"/><path class="cls-8" d="M283.06,133.39h79.52v37.42H283.06Z"/><path class="cls-9" d="M236.29,114.68h28.06V311.13H236.29Z"/><path class="cls-5" d="M376.61,245.65V226.94H366a36.62,36.62,0,0,0-3.68-9.13l9.59-9.58-14-14-9.58,9.59a36.62,36.62,0,0,0-9.13-3.68V189.52H320.48V200.1a36.7,36.7,0,0,0-9.12,3.68l-9.59-9.59-14,14,9.59,9.58a37,37,0,0,0-3.69,9.13H283.06v18.71h10.58a37.12,37.12,0,0,0,3.69,9.12l-9.59,9.58,14,14,9.59-9.59a36.7,36.7,0,0,0,9.12,3.68v10.58h18.71V272.48a36.62,36.62,0,0,0,9.13-3.68l9.58,9.59,14-14-9.59-9.58a36.7,36.7,0,0,0,3.68-9.12Z"/><circle class="cls-6" cx="329.84" cy="236.29" r="18.71"/><path d="M376.61,400H124a4.69,4.69,0,0,1-4.68-4.68V348.55a4.69,4.69,0,0,1,4.68-4.68H376.61a4.68,4.68,0,0,1,4.68,4.68v46.77A4.68,4.68,0,0,1,376.61,400Zm-247.9-9.35H371.94V353.23H128.71Z"/><path d="M166.13,348.55h9.35v46.77h-9.35Z"/><path d="M184.84,348.55h9.35v46.77h-9.35Z"/><path d="M343.87,348.55h9.36v46.77h-9.36Z"/><path d="M128.71,301.77h-9.36V255a4.69,4.69,0,0,1,4.68-4.68H236.29v9.36H128.71Z"/><path d="M166.13,255h9.35v46.77h-9.35Z"/><path d="M184.84,255h9.35v46.77h-9.35Z"/><path d="M124,353.23h-9.35a4.68,4.68,0,0,1-4.68-4.68V301.77a4.67,4.67,0,0,1,4.68-4.67H236.29v9.35H119.35v37.42H124Z"/><path d="M156.77,301.77h9.36v46.78h-9.36Z"/><path d="M175.48,301.77h9.36v46.78h-9.36Z"/><path d="M334.52,311.13h9.35v37.42h-9.35Z"/><path d="M395.32,315.81h-159a4.68,4.68,0,0,1-4.68-4.68V114.68a4.68,4.68,0,0,1,4.68-4.68h159a4.68,4.68,0,0,1,4.68,4.68V311.13A4.68,4.68,0,0,1,395.32,315.81ZM241,306.45H390.65V119.35H241Z"/><path d="M259.68,114.68H269V311.13h-9.35Z"/><path d="M339.19,287.74H320.48a4.67,4.67,0,0,1-4.67-4.68V276c-1.21-.43-2.4-.91-3.55-1.44l-7.18,7.18a4.8,4.8,0,0,1-6.61,0l-14-14a4.68,4.68,0,0,1,0-6.61l7.18-7.18c-.52-1.16-1-2.34-1.43-3.55h-7.12a4.67,4.67,0,0,1-4.67-4.67V226.94a4.67,4.67,0,0,1,4.67-4.68h7.12c.42-1.21.9-2.39,1.43-3.55l-7.18-7.18a4.68,4.68,0,0,1,0-6.61l14-14a4.67,4.67,0,0,1,6.61,0l7.18,7.18c1.15-.53,2.34-1,3.55-1.43v-7.12a4.67,4.67,0,0,1,4.67-4.68h18.71a4.67,4.67,0,0,1,4.68,4.68v7.12c1.21.42,2.4.9,3.55,1.43l7.18-7.18a4.8,4.8,0,0,1,6.61,0l14,14a4.67,4.67,0,0,1,0,6.61l-7.17,7.18c.52,1.16,1,2.34,1.43,3.55h7.11a4.67,4.67,0,0,1,4.68,4.68v18.71a4.67,4.67,0,0,1-4.68,4.67H369.5c-.43,1.21-.9,2.39-1.43,3.55l7.17,7.18a4.67,4.67,0,0,1,0,6.61l-14,14a4.67,4.67,0,0,1-6.61,0l-7.18-7.18c-1.15.53-2.34,1-3.55,1.44v7.11A4.67,4.67,0,0,1,339.19,287.74Zm-14-9.35h9.36v-5.91A4.67,4.67,0,0,1,338,268a32.47,32.47,0,0,0,8-3.22,4.68,4.68,0,0,1,5.63.76l6.27,6.27,7.42-7.42L359,258.08a4.68,4.68,0,0,1-.75-5.62,32.6,32.6,0,0,0,3.21-8A4.68,4.68,0,0,1,366,241h5.91v-9.36H366a4.68,4.68,0,0,1-4.53-3.51,32.53,32.53,0,0,0-3.21-8,4.69,4.69,0,0,1,.75-5.63l6.28-6.27-7.42-7.42-6.27,6.27a4.7,4.7,0,0,1-5.63.76,32.86,32.86,0,0,0-8-3.22,4.66,4.66,0,0,1-3.5-4.52v-5.91h-9.36v5.91a4.66,4.66,0,0,1-3.51,4.52,32.63,32.63,0,0,0-8,3.22,4.65,4.65,0,0,1-5.62-.76l-6.28-6.27-7.41,7.42,6.27,6.27a4.69,4.69,0,0,1,.76,5.63,33,33,0,0,0-3.22,8,4.67,4.67,0,0,1-4.53,3.51h-5.9V241h5.9a4.67,4.67,0,0,1,4.53,3.51,33,33,0,0,0,3.22,8,4.68,4.68,0,0,1-.76,5.62l-6.27,6.27,7.41,7.42,6.28-6.27a4.67,4.67,0,0,1,5.62-.76,33,33,0,0,0,8,3.22,4.66,4.66,0,0,1,3.51,4.52Z"/><path d="M329.84,259.68a23.39,23.39,0,1,1,23.39-23.39A23.41,23.41,0,0,1,329.84,259.68Zm0-37.42a14,14,0,1,0,14,14A14,14,0,0,0,329.84,222.26Z"/><path d="M376.61,175.48H283.06a4.67,4.67,0,0,1-4.67-4.67V133.39a4.68,4.68,0,0,1,4.67-4.68h93.55a4.68,4.68,0,0,1,4.68,4.68v37.42A4.67,4.67,0,0,1,376.61,175.48Zm-88.87-9.35h84.2V138.06h-84.2Z"/><path d="M184.84,259.68H156.77A4.68,4.68,0,0,1,152.1,255V207.92a42.52,42.52,0,0,1,8.18-79.06,4.68,4.68,0,0,1,5.85,4.53v32.74a4.68,4.68,0,1,0,9.35,0V133.39a4.69,4.69,0,0,1,5.86-4.53,42.52,42.52,0,0,1,8.18,79V255a4.68,4.68,0,0,1-4.68,4.68Zm-23.39-9.36h18.71V204.9a4.69,4.69,0,0,1,2.91-4.33,33.19,33.19,0,0,0,1.77-60.52v26.08a14,14,0,0,1-28.07,0V140.05a33.19,33.19,0,0,0,1.77,60.52,4.68,4.68,0,0,1,2.91,4.33Z"/><path d="M362.58,311.13h9.36v37.42h-9.36Z"/></svg>