<svg id="Layer_1" data-name="Layer 1" xmlns="http://www.w3.org/2000/svg" viewBox="0 0 512 512"><defs><style>.cls-1{fill:#fecd0d;}.cls-2{fill:#27ae60;}.cls-3{fill:#fd614b;}.cls-4{fill:#8ce2ff;}</style></defs><title>classroom</title><path d="M256,0C114.51,0,0,114.5,0,256S114.5,512,256,512,512,397.5,512,256,397.5,0,256,0Zm0,477.87C133.66,477.87,34.13,378.34,34.13,256S133.66,34.13,256,34.13,477.87,133.66,477.87,256,378.34,477.87,256,477.87Z"/><path class="cls-1" d="M209.57,337.17H223.1a17.32,17.32,0,0,1,17.4,17.4v40.6H192.17v-40.6a17.32,17.32,0,0,1,17.4-17.4Z"/><path class="cls-2" d="M286.9,337.17h13.53a17.32,17.32,0,0,1,17.4,17.4v40.6H269.5v-40.6a17.32,17.32,0,0,1,17.4-17.4Z"/><path class="cls-3" d="M364.23,337.17h13.54a17.33,17.33,0,0,1,17.4,17.4v40.6H346.83v-40.6a17.33,17.33,0,0,1,17.4-17.4Z"/><path class="cls-4" d="M132.23,337.17h13.54a17.33,17.33,0,0,1,17.4,17.4v40.6H114.83v-40.6a17.33,17.33,0,0,1,17.4-17.4Z"/><rect class="cls-2" x="114.83" y="114.83" width="280.33" height="116"/><path class="cls-3" d="M259.35,153c-2.42-4.84-8.7-7.25-14-5.32L197,172.83H163.17c-11.6,0-22.24,7.25-26.1,17.89l-13,44.95a10.55,10.55,0,1,0,19.81,7.25h0L158.33,197V332.33h48.34V192.17L254,167.52c5.32-2.42,8.22-8.7,5.8-14A.47.47,0,0,0,259.35,153Z"/><polygon class="cls-2" points="158.33 230.83 158.33 214.4 148.67 230.83 158.33 230.83"/><path class="cls-3" d="M351.67,317.83A19.33,19.33,0,1,0,371,298.5,19.39,19.39,0,0,0,351.67,317.83Z"/><path class="cls-2" d="M274.33,317.83a19.34,19.34,0,1,0,19.34-19.33A19.39,19.39,0,0,0,274.33,317.83Z"/><path class="cls-1" d="M197,317.83a19.34,19.34,0,1,0,19.33-19.33A19.39,19.39,0,0,0,197,317.83Z"/><path class="cls-4" d="M119.67,317.83A19.33,19.33,0,1,0,139,298.5,19.39,19.39,0,0,0,119.67,317.83Z"/><circle class="cls-3" cx="182.5" cy="148.67" r="19.33"/><path d="M395.17,110H114.83a4.56,4.56,0,0,0-4.83,4.83h0V211.5h9.67V119.67H390.33V226H221.17v9.67h174a4.57,4.57,0,0,0,4.83-4.84h0v-116a4.56,4.56,0,0,0-4.83-4.83Z"/><rect x="269.5" y="134.17" width="96.67" height="9.67"/><rect x="284" y="163.17" width="96.67" height="9.67"/><rect x="264.67" y="192.17" width="96.67" height="9.67"/><path d="M114.83,400h48.34a4.56,4.56,0,0,0,4.83-4.83h0v-40.6a22,22,0,0,0-8.7-17.4H196a22.72,22.72,0,0,0-8.7,17.4v40.6a4.57,4.57,0,0,0,4.84,4.83H240.5a4.56,4.56,0,0,0,4.83-4.83h0v-40.6a22.83,22.83,0,0,0-12.08-19.82c9.67-9.18,9.67-24.65.48-34.32a25,25,0,0,0-22.23-6.76v-98.6L256,171.87c7.73-3.39,11.6-12.57,8.21-20.3a15.63,15.63,0,0,0-20.3-8.22h-.48l-39.15,20.3a26,26,0,0,0,2.42-10.15,24.17,24.17,0,0,0-48.34,0,26,26,0,0,0,4.84,14.5h0a33.6,33.6,0,0,0-30.94,21.27l-13,44.46c-2.9,8.22,1,16.92,8.7,19.82a14.74,14.74,0,0,0,11.12,0,13.77,13.77,0,0,0,8.7-9.18l4.83-16V298.5a22.82,22.82,0,0,0-14.5-4.83,24.26,24.26,0,0,0-16.91,41.56c-6.29,3.39-11.12,11.12-11.12,19.34v40.6a4.56,4.56,0,0,0,4.83,4.83Zm120.84-9.67H197V354.57A12.8,12.8,0,0,1,209.57,342H223.1a12.8,12.8,0,0,1,12.57,12.57Zm-4.84-72.5a14.5,14.5,0,1,1-14.5-14.5A14.24,14.24,0,0,1,230.83,317.83ZM168,153.5A14.5,14.5,0,1,1,182.5,168,14.24,14.24,0,0,1,168,153.5Zm-28.52,88a5.74,5.74,0,0,1-7.25,3.38.47.47,0,0,1-.48-.48,6.29,6.29,0,0,1-2.9-7.74l13.05-44.46c2.9-8.7,11.6-14.5,21.27-14.5h34.31a4.32,4.32,0,0,0,2.42-.49l47.85-25.13a6.27,6.27,0,0,1,7.73,2.9,5.71,5.71,0,0,1,.49,4.83,5.57,5.57,0,0,1-3.87,3.39l-47.37,24.65a4.64,4.64,0,0,0-2.9,4.35V298.5a24.15,24.15,0,0,0-7.73,29h-6.77V245.33h-9.66V327.5H161.23a21.64,21.64,0,0,0,1.94-9.67h0V197a4.57,4.57,0,0,0-4.84-4.83,5.83,5.83,0,0,0-4.83,3.38ZM139,303.33a14.5,14.5,0,1,1-14.5,14.5A14.24,14.24,0,0,1,139,303.33Zm-19.33,51.24A12.8,12.8,0,0,1,132.23,342h13.54a12.8,12.8,0,0,1,12.56,12.57v35.76H119.67Z"/><path d="M264.67,354.57v40.6A4.56,4.56,0,0,0,269.5,400h48.33a4.57,4.57,0,0,0,4.84-4.83h0v-40.6a22.84,22.84,0,0,0-12.09-19.82c9.67-9.18,9.67-24.65,0-34.32-9.18-9.66-24.65-9.66-34.31,0-9.67,9.19-9.67,24.65,0,34.32h0A23.37,23.37,0,0,0,264.67,354.57Zm29-51.24a14.5,14.5,0,1,1-14.5,14.5A14.25,14.25,0,0,1,293.67,303.33Zm-19.34,51.24A12.8,12.8,0,0,1,286.9,342h13.53A12.8,12.8,0,0,1,313,354.57v35.76H274.33V354.57Z"/><path d="M387.92,334.75c9.66-9.18,9.66-24.65.48-34.32s-24.65-9.66-34.32-.48-9.66,24.65-.48,34.32l.48.48A22.83,22.83,0,0,0,342,354.57v40.6a4.56,4.56,0,0,0,4.83,4.83h48.34a4.56,4.56,0,0,0,4.83-4.83h0v-40.6A22.83,22.83,0,0,0,387.92,334.75ZM371,303.33a14.5,14.5,0,1,1-14.5,14.5A14.24,14.24,0,0,1,371,303.33Zm19.33,87H351.67V354.57A12.8,12.8,0,0,1,364.23,342h13.54a12.8,12.8,0,0,1,12.56,12.57v35.76Z"/></svg>