<svg id="Layer_1" data-name="Layer 1" xmlns="http://www.w3.org/2000/svg" viewBox="0 0 512 512"><defs><style>.cls-1{fill:#009698;}.cls-2{fill:#ffc477;}.cls-3{fill:#ffdaaa;}.cls-4{fill:#b39a7c;}.cls-5{fill:#e0e0e2;}.cls-6{fill:#3e3d42;}.cls-7{fill:#d80027;}</style></defs><title>semester</title><path d="M256,0C114.51,0,0,114.5,0,256S114.5,512,256,512,512,397.5,512,256,397.5,0,256,0Zm0,477.87C133.66,477.87,34.13,378.34,34.13,256S133.66,34.13,256,34.13,477.87,133.66,477.87,256,378.34,477.87,256,477.87Z"/><path class="cls-1" d="M114.83,167.35H395.17V362.13H114.83Z"/><path class="cls-2" d="M255,167.35V362.13a19.39,19.39,0,0,0-19.28-19.48H134.17V147.87h101.5A19.41,19.41,0,0,1,255,167.35Z"/><path class="cls-3" d="M274.33,147.87A19.41,19.41,0,0,0,255,167.35V362.13a19.41,19.41,0,0,1,19.33-19.48h101.5V147.87Z"/><path class="cls-4" d="M342,298.83l-14.5,24.34L313,298.83l14.5-9.74Z"/><path class="cls-5" d="M342,182v4.87H313V182a14.5,14.5,0,1,1,29,0Z"/><path class="cls-6" d="M313,186.83h29V206.3H313Z"/><path class="cls-7" d="M342,206.3v92.53l-14.5-9.74L313,298.83V206.3Z"/><path d="M395.17,162.48h-14.5V147.87a4.86,4.86,0,0,0-4.84-4.87H274.33A24.08,24.08,0,0,0,255,152.89,24.08,24.08,0,0,0,235.67,143H134.17a4.86,4.86,0,0,0-4.84,4.87v14.61h-14.5a4.85,4.85,0,0,0-4.83,4.87V362.13a4.85,4.85,0,0,0,4.83,4.87H395.17a4.85,4.85,0,0,0,4.83-4.87V167.35A4.85,4.85,0,0,0,395.17,162.48ZM119.67,357.26v-185h9.66V342.65a4.86,4.86,0,0,0,4.84,4.87h101.5a14.57,14.57,0,0,1,13.63,9.74Zm130.5-14.46a23.72,23.72,0,0,0-14.5-5H139v-185h96.67a14.6,14.6,0,0,1,14.5,14.61Zm4.83,4.87-.15-.15h.29Zm4.83-180.32a14.6,14.6,0,0,1,14.5-14.61H371v185H274.33a23.72,23.72,0,0,0-14.5,5Zm130.5,189.91H260.7a14.57,14.57,0,0,1,13.63-9.74h101.5a4.86,4.86,0,0,0,4.84-4.87V172.22h9.66Z"/><path d="M327.5,162.48A19.4,19.4,0,0,0,308.17,182V298.83a4.91,4.91,0,0,0,.67,2.48l14.5,24.35a4.83,4.83,0,0,0,6.63,1.7,5,5,0,0,0,1.69-1.7l14.5-24.35a4.91,4.91,0,0,0,.67-2.48V182A19.4,19.4,0,0,0,327.5,162.48Zm0,151.25-8-13.44,8-5.36,8,5.36Zm9.67-24-4.84-3.26V220.91h-9.66v65.55l-4.84,3.26V211.17h19.34Zm0-88.29H317.83V191.7h19.34ZM317.83,182a9.67,9.67,0,1,1,19.34,0Z"/><path d="M148.67,167.35H240.5v9.74H148.67Z"/><path d="M148.67,186.83h53.16v9.74H148.67Z"/><path d="M211.5,186.83h29v9.74h-29Z"/><path d="M148.67,206.3H168V216H148.67Z"/><path d="M177.67,206.3H240.5V216H177.67Z"/></svg>