<svg id="Layer_3" enable-background="new 0 0 64 64" height="512" viewBox="0 0 64 64" width="512" xmlns="http://www.w3.org/2000/svg"><path d="m4 32h24v10h-24z" fill="#e3aa75"/><path d="m4 52h54v10h-54z" fill="#e3aa75"/><path d="m52 52h6v10h-6z" fill="#aa8058"/><path d="m14 52h4v10h-4z" fill="#aa8058"/><path d="m2 42h54v10h-54z" fill="#cdf5a0"/><path d="m50 42h6v10h-6z" fill="#9ab878"/><path d="m12 42h4v10h-4z" fill="#9ab878"/><path d="m14 32h4v10h-4z" fill="#aa8058"/><path d="m22 13.814c0-3.759-2.549-6.918-6-7.814v7c0 1.105-.895 2-2 2-1.105 0-2-.895-2-2v-7c-3.45.896-6 4.054-6 7.814 0 3.385 2.069 6.278 5 7.476v10.71h6v-10.711c2.931-1.197 5-4.09 5-7.475z" fill="#aaa9aa"/><path d="m28 2h34v42h-34z" fill="#97e5b6"/><path d="m38 6h20v8h-20z" fill="#b99e6d"/><path d="m38 6h17v8h-17z" fill="#f7d291"/><path d="m28 2h6v42h-6z" fill="#71ac89"/><path d="m58 30v-4h-2.262c-.178-.691-.442-1.346-.787-1.951l2.049-2.049-3-3-2.049 2.049c-.605-.345-1.26-.609-1.951-.787v-2.262h-4v2.262c-.691.178-1.346.442-1.951.787l-2.049-2.049-3 3 2.049 2.049c-.345.605-.609 1.26-.787 1.951h-2.262v4h2.262c.178.691.442 1.346.787 1.951l-2.049 2.049 3 3 2.049-2.049c.605.345 1.26.609 1.951.787v2.262h4v-2.262c.691-.178 1.346-.442 1.951-.787l2.049 2.049 3-3-2.049-2.049c.345-.605.609-1.26.787-1.951z" fill="#aaa9aa"/><circle cx="48" cy="28" fill="#97e5b6" r="4"/><path d="m58 63h-54c-.553 0-1-.448-1-1v-10c0-.552.447-1 1-1h54c.553 0 1 .448 1 1v10c0 .552-.447 1-1 1zm-53-2h52v-8h-52z"/><path d="m13 52h2v10h-2z"/><path d="m17 52h2v10h-2z"/><path d="m51 52h2v10h-2z"/><path d="m5 42h-2v-10c0-.552.447-1 1-1h24v2h-23z"/><path d="m13 32h2v10h-2z"/><path d="m17 32h2v10h-2z"/><path d="m4 53h-2c-.553 0-1-.448-1-1v-10c0-.552.447-1 1-1h26v2h-25v8h1z"/><path d="m11 42h2v10h-2z"/><path d="m15 42h2v10h-2z"/><path d="m49 44h2v8h-2z"/><path d="m62 45h-34c-.553 0-1-.448-1-1v-42c0-.552.447-1 1-1h34c.553 0 1 .448 1 1v42c0 .552-.447 1-1 1zm-33-2h32v-40h-32z"/><path d="m33 2h2v42h-2z"/><path d="m50 39h-4c-.553 0-1-.448-1-1v-1.522c-.259-.091-.512-.193-.758-.306l-1.535 1.535c-.375.375-1.039.375-1.414 0l-3-3c-.391-.391-.391-1.023 0-1.414l1.534-1.535c-.112-.247-.215-.5-.306-.758h-1.521c-.553 0-1-.448-1-1v-4c0-.552.447-1 1-1h1.521c.091-.258.193-.511.306-.758l-1.534-1.535c-.391-.391-.391-1.023 0-1.414l3-3c.187-.188.441-.293.707-.293.266 0 .52.105.707.293l1.535 1.535c.246-.113.499-.215.758-.306v-1.522c0-.552.447-1 1-1h4c.553 0 1 .448 1 1v1.522c.259.091.512.193.758.306l1.535-1.535c.375-.375 1.039-.375 1.414 0l3 3c.391.391.391 1.023 0 1.414l-1.534 1.535c.112.247.215.5.306.758h1.521c.553 0 1 .448 1 1v4c0 .552-.447 1-1 1h-1.521c-.091.258-.193.511-.306.758l1.534 1.535c.391.391.391 1.023 0 1.414l-3 3c-.187.188-.441.293-.707.293-.266 0-.52-.105-.707-.293l-1.535-1.535c-.246.113-.499.215-.758.306v1.522c0 .552-.447 1-1 1zm-3-2h2v-1.262c0-.456.309-.854.75-.968.606-.156 1.18-.388 1.706-.688.389-.223.883-.158 1.202.162l1.342 1.342 1.586-1.586-1.342-1.342c-.318-.318-.385-.811-.162-1.202.3-.526.531-1.1.688-1.706.114-.441.512-.75.968-.75h1.262v-2h-1.262c-.456 0-.854-.308-.968-.75-.157-.606-.389-1.18-.688-1.706-.223-.392-.156-.884.162-1.202l1.342-1.342-1.586-1.586-1.342 1.342c-.319.318-.813.384-1.202.162-.526-.3-1.1-.531-1.706-.688-.441-.113-.75-.512-.75-.968v-1.262h-2v1.262c0 .456-.309.854-.75.968-.606.156-1.18.388-1.706.688-.391.223-.884.157-1.202-.162l-1.342-1.342-1.586 1.586 1.342 1.342c.318.318.385.811.162 1.202-.3.526-.531 1.1-.688 1.706-.115.442-.512.75-.968.75h-1.262v2h1.262c.456 0 .854.308.968.75.157.606.389 1.18.688 1.706.223.392.156.884-.162 1.202l-1.342 1.342 1.586 1.586 1.342-1.342c.318-.32.812-.385 1.202-.162.526.3 1.1.531 1.706.688.441.114.75.512.75.968z"/><path d="m48 33c-2.757 0-5-2.243-5-5s2.243-5 5-5 5 2.243 5 5-2.243 5-5 5zm0-8c-1.654 0-3 1.346-3 3s1.346 3 3 3 3-1.346 3-3-1.346-3-3-3z"/><path d="m58 15h-20c-.553 0-1-.448-1-1v-8c0-.552.447-1 1-1h20c.553 0 1 .448 1 1v8c0 .552-.447 1-1 1zm-19-2h18v-6h-18z"/><path d="m17 33h-6c-.553 0-1-.448-1-1v-10.066c-3.059-1.525-5-4.642-5-8.12 0-4.139 2.775-7.75 6.749-8.781.298-.079.617-.013.863.177.244.188.388.48.388.79v7c0 .551.448 1 1 1s1-.449 1-1v-7c0-.31.144-.602.388-.791.246-.189.562-.255.863-.177 3.974 1.031 6.749 4.642 6.749 8.781 0 3.478-1.941 6.595-5 8.12v10.067c0 .552-.447 1-1 1zm-5-2h4v-9.71c0-.406.246-.772.622-.926 2.659-1.087 4.378-3.658 4.378-6.551 0-2.772-1.593-5.239-4-6.389v5.576c0 1.654-1.346 3-3 3s-3-1.346-3-3v-5.576c-2.407 1.15-4 3.617-4 6.389 0 2.892 1.719 5.463 4.378 6.55.376.155.622.52.622.927z"/><path d="m55 44h2v8h-2z"/></svg>