<?xml version="1.0"?>
<svg xmlns="http://www.w3.org/2000/svg" xmlns:xlink="http://www.w3.org/1999/xlink" xmlns:svgjs="http://svgjs.com/svgjs" version="1.1" width="512" height="512" x="0" y="0" viewBox="0 0 512 512" style="enable-background:new 0 0 512 512" xml:space="preserve" class=""><g><path xmlns="http://www.w3.org/2000/svg" d="m416 512h-320c-53.023438 0-96-42.976562-96-96v-320c0-53.023438 42.976562-96 96-96h320c53.023438 0 96 42.976562 96 96v320c0 53.023438-42.976562 96-96 96zm0 0" fill="#e3f8fa" data-original="#fff9dd" style="" class=""/><path xmlns="http://www.w3.org/2000/svg" d="m341.328125 178.671875c0-16.175781-13.152344-29.328125-29.328125-29.328125h-154.671875c-16.175781-.015625-29.328125 13.152344-29.328125 29.328125v34.671875h213.328125zm0 0" fill="#26c6da" data-original="#ffd200" style="" class=""/><path xmlns="http://www.w3.org/2000/svg" d="m181.328125 181.328125c-5.886719 0-10.671875-4.785156-10.671875-10.671875v-32c.015625-5.886719 4.785156-10.65625 10.671875-10.65625s10.671875 4.769531 10.671875 10.671875v32c0 5.886719-4.769531 10.65625-10.671875 10.65625zm0 0" fill="#8ce1eb" data-original="#ffe777" style="" class=""/><path xmlns="http://www.w3.org/2000/svg" d="m288 181.328125c-5.886719 0-10.671875-4.785156-10.671875-10.671875v-32c0-5.886719 4.785156-10.65625 10.671875-10.65625s10.671875 4.785156 10.671875 10.671875v32c0 5.886719-4.769531 10.65625-10.671875 10.65625zm0 0" fill="#8ce1eb" data-original="#ffe777" style="" class=""/><path xmlns="http://www.w3.org/2000/svg" d="m213.328125 330.671875h-53.328125c-17.648438 0-32-14.351563-32-32v-106.671875c0-5.886719 4.769531-10.671875 10.671875-10.671875s10.65625 4.785156 10.65625 10.671875v106.671875c0 5.886719 4.785156 10.671875 10.671875 10.671875h53.328125c5.902344-.015625 10.671875 4.769531 10.671875 10.65625s-4.769531 10.671875-10.671875 10.671875zm0 0" fill="#26c6da" data-original="#ffd200" style="" class=""/><path xmlns="http://www.w3.org/2000/svg" d="m330.671875 224c-5.902344 0-10.671875-4.785156-10.671875-10.671875v-21.328125c0-5.886719 4.769531-10.671875 10.671875-10.671875 5.886719 0 10.671875 4.785156 10.671875 10.671875v21.328125c-.015625 5.886719-4.785156 10.671875-10.671875 10.671875zm0 0" fill="#26c6da" data-original="#ffd200" style="" class=""/><path xmlns="http://www.w3.org/2000/svg" d="m314.671875 245.328125c-38.222656 0-69.328125 31.105469-69.328125 69.328125s31.089844 69.34375 69.328125 69.34375 69.328125-31.105469 69.328125-69.328125-31.105469-69.34375-69.328125-69.34375zm32.0625 57.664063-34.671875 40c-1.933594 2.238281-4.71875 3.566406-7.679688 3.679687-.125 0-.253906 0-.382812 0-2.816406 0-5.535156-1.121094-7.535156-3.121094l-18.671875-18.671875c-4.160157-4.160156-4.160157-10.910156 0-15.085937 4.160156-4.175781 10.910156-4.160157 15.085937 0l10.5625 10.558593 27.167969-31.34375c3.871094-4.464843 10.589844-4.929687 15.039063-1.070312 4.464843 3.855469 4.925781 10.605469 1.085937 15.054688zm0 0" fill="#8ce1eb" data-original="#ffe777" style="" class=""/></g></svg>
