<svg id="bold" enable-background="new 0 0 32 32" height="512" viewBox="0 0 32 32" width="512" xmlns="http://www.w3.org/2000/svg"><path d="m26 32h-20c-3.314 0-6-2.686-6-6v-20c0-3.314 2.686-6 6-6h20c3.314 0 6 2.686 6 6v20c0 3.314-2.686 6-6 6z" fill="#e3f8fa"/><g fill="#26c6da"><path d="m12.667 13.334c-.735 0-1.333-.598-1.333-1.333s.598-1.333 1.333-1.333c.735-.001 1.333.597 1.333 1.332 0 .736-.598 1.334-1.333 1.334z"/><path d="m14.833 16h-4.333c-.276 0-.5-.224-.5-.5 0-.827.673-1.5 1.5-1.5h2.333c.827 0 1.5.673 1.5 1.5 0 .276-.224.5-.5.5z"/><circle cx="22" cy="20.334" r="1"/><path d="m23.5 24h-3c-.276 0-.5-.224-.5-.5 0-.827.673-1.5 1.5-1.5h1c.827 0 1.5.673 1.5 1.5 0 .276-.224.5-.5.5z"/><circle cx="16.667" cy="20.334" r="1"/><path d="m18.167 24h-3c-.276 0-.5-.224-.5-.5 0-.827.673-1.5 1.5-1.5h1c.827 0 1.5.673 1.5 1.5 0 .276-.224.5-.5.5z"/><path d="m16.667 16.667h-8c-.368 0-.667.298-.667.667s.299.666.667.666h.748l.585 5.554c.027.253.247.446.5.446h2.911c-.046-.16-.078-.326-.078-.5 0-.941.466-1.771 1.175-2.287-.111-.272-.175-.568-.175-.88 0-1.018.659-1.877 1.57-2.195l.015-.138h.748c.368 0 .667-.299.667-.667s-.298-.666-.666-.666z"/></g><path d="m21.882 15.914-1.882-1.281-1.882 1.281c-.38.258-.879-.091-.766-.536l.587-2.317-1.764-1.506c-.342-.291-.154-.854.296-.88l2.245-.127.814-2.22c.16-.435.779-.435.939 0l.814 2.22 2.245.127c.45.026.638.588.296.88l-1.764 1.506.587 2.317c.115.447-.388.792-.765.536z" fill="#8ce1eb"/></svg>