<svg height="512pt" viewBox="0 0 512 512" width="512pt" xmlns="http://www.w3.org/2000/svg"><path d="m416 512h-320c-53.023438 0-96-42.976562-96-96v-320c0-53.023438 42.976562-96 96-96h320c53.023438 0 96 42.976562 96 96v320c0 53.023438-42.976562 96-96 96zm0 0" fill="#e3f8fa"/><path d="m369.953125 228.207031-20.050781-2.558593c-1.644532-5.089844-3.679688-10-6.078125-14.65625l12.382812-15.9375c5.007813-6.460938 4.433594-15.566407-1.296875-21.117188l-16.796875-16.800781c-5.601562-5.777344-14.707031-6.351563-21.183593-1.359375l-15.9375 12.382812c-4.65625-2.382812-9.566407-4.417968-14.65625-6.0625l-2.527344-20.019531c-.976563-8.03125-7.792969-14.078125-15.855469-14.078125h-23.890625c-8.078125 0-14.894531 6.046875-15.855469 14.046875l-2.558593 20.050781c-5.089844 1.664063-10 3.679688-14.65625 6.0625l-15.9375-12.382812c-6.445313-5.007813-15.550782-4.433594-21.117188 1.292968l-16.800781 16.800782c-5.777344 5.617187-6.367188 14.722656-1.359375 21.183594l12.382812 15.9375c-2.382812 4.65625-4.417968 9.566406-6.082031 14.65625l-20 2.542968c-8.03125.976563-14.078125 7.792969-14.078125 15.855469v23.890625c0 8.078125 6.046875 14.894531 14.046875 15.855469l20.050781 2.558593c1.644532 5.089844 3.679688 10 6.078125 14.65625l-12.382812 15.9375c-5.007813 6.460938-4.433594 15.566407 1.296875 21.117188l16.796875 16.800781c5.617187 5.777344 14.707031 6.351563 21.167969 1.34375l15.9375-12.382812c4.65625 2.382812 9.566406 4.414062 14.65625 6.078125l2.542968 20.019531c.960938 8.03125 7.777344 14.078125 15.855469 14.078125h23.890625c8.078125 0 14.894531-6.046875 15.855469-14.046875l2.558593-20.050781c5.089844-1.644532 10-3.679688 14.65625-6.078125l15.9375 12.382812c6.445313 5.007813 15.566407 4.433594 21.117188-1.296875l16.800781-16.796875c5.777344-5.617187 6.367188-14.722656 1.359375-21.183593l-12.382812-15.9375c2.382812-4.65625 4.417968-9.566407 6.082031-14.65625l20.015625-2.542969c8.03125-.960938 14.078125-7.777344 14.078125-15.855469v-23.890625c-.015625-8.0625-6.0625-14.878906-14.0625-15.839844zm-113.953125 81.121094c-29.40625 0-53.328125-23.921875-53.328125-53.328125s23.921875-53.328125 53.328125-53.328125 53.328125 23.921875 53.328125 53.328125-23.921875 53.328125-53.328125 53.328125zm0 0" fill="#26c6da"/></svg>