<?xml version="1.0"?>
<svg xmlns="http://www.w3.org/2000/svg" xmlns:xlink="http://www.w3.org/1999/xlink" xmlns:svgjs="http://svgjs.com/svgjs" version="1.1" width="512" height="512" x="0" y="0" viewBox="0 0 32 32" style="enable-background:new 0 0 512 512" xml:space="preserve" class=""><g><path xmlns="http://www.w3.org/2000/svg" fill="#e3f8fa" d="M26,32H6c-3.314,0-6-2.686-6-6V6c0-3.314,2.686-6,6-6h20c3.314,0,6,2.686,6,6v20C32,29.314,29.314,32,26,32z  " data-original="#f5e6fe" style="" class=""/><path xmlns="http://www.w3.org/2000/svg" fill="#8ce1eb" d="M19.333,21.998c-0.069,0-0.137-0.014-0.201-0.042l-4.167-1.833c-0.181-0.08-0.299-0.259-0.299-0.458  s0.117-0.378,0.299-0.458l4.167-1.833c0.128-0.056,0.275-0.056,0.403,0l4.167,1.833C23.883,19.287,24,19.466,24,19.665  s-0.117,0.378-0.299,0.458l-4.167,1.833C19.471,21.984,19.402,21.998,19.333,21.998z" data-original="#d9a4fc" style="" class=""/><path xmlns="http://www.w3.org/2000/svg" fill="#8ce1eb" d="M19.938,22.871c-0.194,0.085-0.396,0.127-0.604,0.127c-0.208,0-0.41-0.042-0.602-0.126L16,21.67v0.459  c0,0.407,0.213,0.789,0.554,0.997C17.515,23.708,18.424,24,19.333,24c0.909,0,1.818-0.292,2.779-0.874  c0.342-0.208,0.554-0.59,0.554-0.997V21.67L19.938,22.871z" data-original="#d9a4fc" style="" class=""/><path xmlns="http://www.w3.org/2000/svg" fill="#26c6da" d="M14,14.667c-1.838,0-3.333-1.495-3.333-3.333S12.162,8,14,8s3.333,1.495,3.333,3.333  S15.838,14.667,14,14.667z" data-original="#be63f9" style="" class=""/><path xmlns="http://www.w3.org/2000/svg" fill="#26c6da" d="M13.333,19.667c0-0.727,0.427-1.387,1.093-1.68l3.853-1.7C17.893,16.1,17.46,16,17,16h-6  c-1.653,0-3,1.347-3,3v2.667C8,21.853,8.147,22,8.333,22h6.333v-0.553l-0.24-0.107C13.76,21.047,13.333,20.387,13.333,19.667z" data-original="#be63f9" style="" class=""/></g></svg>
