<svg id="bold" enable-background="new 0 0 32 32" height="512" viewBox="0 0 32 32" width="512" xmlns="http://www.w3.org/2000/svg"><path d="m26 32h-20c-3.314 0-6-2.686-6-6v-20c0-3.314 2.686-6 6-6h20c3.314 0 6 2.686 6 6v20c0 3.314-2.686 6-6 6z" fill="#e3f8fa"/><path d="m21.229 11.809c-1.186-1.864-3.14-2.976-5.229-2.976s-4.043 1.112-5.229 2.975c-.139.219-.139.497 0 .716 1.186 1.864 3.14 2.976 5.229 2.976s4.043-1.112 5.229-2.975c.139-.219.139-.498 0-.716zm-5.229 1.691c-.736 0-1.333-.597-1.333-1.333s.597-1.333 1.333-1.333 1.333.597 1.333 1.333-.597 1.333-1.333 1.333z" fill="#8ce1eb"/><path d="m23.334 10.833c-.369 0-.667.298-.667.667v8.667h-13.334v-8.667c0-.368-.298-.667-.667-.667-.368 0-.666.298-.666.667v8.667c0 .735.598 1.333 1.333 1.333h5.334v1.333h-1.5c-.369 0-.667.298-.667.667 0 .368.298.667.667.667h5.667c.369 0 .667-.298.667-.667 0-.368-.298-.667-.667-.667h-1.5v-1.333h5.334c.735 0 1.333-.598 1.333-1.333v-8.667c-.001-.369-.299-.667-.667-.667z" fill="#26c6da"/></svg>