<?xml version="1.0"?>
<svg xmlns="http://www.w3.org/2000/svg" xmlns:xlink="http://www.w3.org/1999/xlink" version="1.1" id="Layer_1" x="0px" y="0px" viewBox="0 0 512 512" style="enable-background:new 0 0 512 512;" xml:space="preserve" width="512px" height="512px" class=""><g><circle style="fill:#00AF80" cx="256" cy="256" r="256" data-original="#88EB92" class="active-path" data-old_color="#88EB92"/><path style="fill:#1C8D76" d="M508.08,300.853C486.886,420.838,382.087,512,256,512l-1.174-0.023L118.717,375.867l223.821-240.579  L508.08,300.853z" data-original="#73D17C" class="" data-old_color="#73D17C"/><polygon style="fill:#F8F8F8;" points="118.717,88.604 295.854,88.604 342.538,135.288 342.538,375.867 118.717,375.867 " data-original="#F8F8F8" class=""/><polygon style="fill:#D9D9DD;" points="295.854,88.604 295.854,135.288 342.538,135.288 " data-original="#D9D9DD" class=""/><circle style="fill:#FF8C8A;" cx="330.096" cy="350.889" r="60.705" data-original="#FF8C8A"/><g>
	<path style="fill:#FFFFFF;" d="M366.596,345.05v11.665c-56.002,0-16.993,0-72.995,0V345.05   C349.603,345.05,310.594,345.05,366.596,345.05z" data-original="#FFFFFF" class=""/>
	<path style="fill:#FFFFFF;" d="M324.278,314.396h11.642c0,56.002,0,16.993,0,72.995h-11.642   C324.278,331.389,324.278,370.398,324.278,314.396z" data-original="#FFFFFF" class=""/>
</g><g>
	<polygon style="fill:#B3B3BD;" points="151.976,174.086 309.256,174.086 309.256,180.704 151.976,180.704  " data-original="#B3B3BD" class=""/>
	<polygon style="fill:#B3B3BD;" points="151.976,195.491 309.256,195.491 309.256,202.087 151.976,202.087  " data-original="#B3B3BD" class=""/>
	<polygon style="fill:#B3B3BD;" points="151.976,216.874 309.256,216.874 309.256,223.469 151.976,223.469  " data-original="#B3B3BD" class=""/>
	<polygon style="fill:#B3B3BD;" points="151.976,238.256 309.256,238.256 309.256,244.875 151.976,244.875  " data-original="#B3B3BD" class=""/>
	<polygon style="fill:#B3B3BD;" points="151.976,259.661 220.535,259.661 220.535,266.257 151.976,266.257  " data-original="#B3B3BD" class=""/>
</g></g> </svg>
