<?xml version="1.0"?>
<svg xmlns="http://www.w3.org/2000/svg" xmlns:xlink="http://www.w3.org/1999/xlink" version="1.1" id="Layer_1" x="0px" y="0px" viewBox="0 0 512 512" style="enable-background:new 0 0 512 512;" xml:space="preserve" width="512px" height="512px" class=""><g><circle style="fill:#00AF80" cx="256" cy="256" r="256" data-original="#88EB92" class="" data-old_color="#88EB92"/><path style="fill:#1C8D76" d="M506.453,309.137C481.991,425.023,379.163,512,256,512c-3.163,0-6.313-0.086-9.451-0.198  L133.813,399.054l222.939-239.618L506.453,309.137z" data-original="#73D17C" class="active-path" data-old_color="#73D17C"/><polygon style="fill:#F7F7F8" points="133.813,112.934 310.249,112.934 356.752,159.436 356.752,399.054 133.813,399.054 " data-original="#F7F7F8"/><polygon style="fill:#D9D9DD" points="310.249,112.934 310.249,159.436 356.752,159.436 " data-original="#D9D9DD"/><g>
	<polygon style="fill:#B3B3BD" points="179.018,173.125 311.534,173.125 311.534,179.735 179.018,179.735  " data-original="#B3B3BD"/>
	<polygon style="fill:#B3B3BD" points="179.018,191.225 311.534,191.225 311.534,197.822 179.018,197.822  " data-original="#B3B3BD"/>
	<polygon style="fill:#B3B3BD" points="179.018,210.411 311.534,210.411 311.534,217.009 179.018,217.009  " data-original="#B3B3BD"/>
	<polygon style="fill:#B3B3BD" points="179.018,229.784 311.534,229.784 311.534,236.393 179.018,236.393  " data-original="#B3B3BD"/>
	<polygon style="fill:#B3B3BD" points="179.018,247.883 311.534,247.883 311.534,254.48 179.018,254.48  " data-original="#B3B3BD"/>
	<polygon style="fill:#B3B3BD" points="179.018,267.07 311.534,267.07 311.534,273.667 179.018,273.667  " data-original="#B3B3BD"/>
	<polygon style="fill:#B3B3BD" points="179.018,285.194 304.171,285.194 304.171,291.791 179.018,291.791  " data-original="#B3B3BD"/>
	<polygon style="fill:#B3B3BD" points="179.018,304.381 269.306,304.381 269.306,310.978 179.018,310.978  " data-original="#B3B3BD"/>
</g><path style="fill:#FAD55C" d="M288.715,329.893c18.853-1.557,27.254,7.561,26.575,25.982l-27.934,11.725l-9.723-9.513  L288.715,329.893z" data-original="#FAD55C"/><path style="fill:#E3C04D" d="M309.298,335.354c4.398,4.386,6.338,11.28,5.992,20.521l-27.934,11.725l-4.892-4.781L309.298,335.354  z" data-original="#E3C04D"/><path style="fill:#FF8C8A" d="M376.519,254.715l-74.647,76.364c-3.212,3.286-3.15,8.599,0.136,11.799l0,0  c3.274,3.212,8.586,3.15,11.799-0.136l74.647-76.364L376.519,254.715z" data-original="#FF8C8A"/><path style="fill:#FA7876" d="M315.45,355.714c-0.544-0.321-1.05-0.717-1.507-1.161l0,0c-3.286-3.212-3.348-8.525-0.136-11.811  l74.647-76.364l7.314,7.153L315.45,355.714z" data-original="#FA7876"/><polygon style="fill:#68606E" points="277.633,358.086 287.356,367.587 266.662,378.681 " data-original="#68606E"/><polygon style="fill:#58515E" points="282.464,362.818 287.356,367.587 267.267,378.36 " data-original="#58515E" class=""/><path style="fill:#FFB1B0" d="M376.519,254.715l-74.647,76.364c-3.212,3.286-8.525,3.348-11.799,0.136l0,0  c-0.469-0.457-0.865-0.951-1.211-1.483l80.33-82.171L376.519,254.715z" data-original="#FFB1B0"/><polygon style="fill:#1C8D76" points="374.505,241.879 401.327,268.095 395.891,273.655 369.069,247.438 " data-original="#F8F8F8" class="" data-old_color="#F8F8F8"/><path style="fill:#68606E" d="M374.505,241.879l26.822,26.216l5.436-5.547c2.99-3.064,2.928-8.006-0.124-10.996l-15.715-15.357  c-3.064-2.99-8.006-2.928-10.996,0.124L374.505,241.879z" data-original="#68606E"/></g> </svg>
