<?xml version="1.0"?>
<svg xmlns="http://www.w3.org/2000/svg" id="Filled" height="512px" viewBox="0 0 512 512" width="512px" class=""><g><path d="m24 128h464v288h-464z" fill="#8c5237" data-original="#8C5237"/><path d="m56 112h400v272h-400z" fill="#9aa3a8" data-original="#9AA3A8"/><path d="m424 352h-168l-24 32v-272l24-32h168z" fill="#e9eef2" data-original="#E9EEF2"/><path d="m56 112h176v240h-176z" fill="#d0d2d4" data-original="#D0D2D4"/><path d="m424 432-24-16-24 16v-80h48z" fill="#eb423f" data-original="#EB423F"/><g fill="#3397e8"><path d="m88 144h48v48h-48z" data-original="#3397E8" class="active-path" style="fill:#00AF80" data-old_color="#3397E8"/><path d="m280 176h112v48h-112z" data-original="#3397E8" class="active-path" style="fill:#00AF80" data-old_color="#3397E8"/><path d="m168 144h32v112h-32z" data-original="#3397E8" class="active-path" style="fill:#00AF80" data-old_color="#3397E8"/></g><path d="m488 120h-24v-8a8 8 0 0 0 -8-8h-24v-24a8 8 0 0 0 -8-8h-168a8 8 0 0 0 -6.4 3.2l-21.6 28.8h-172a8 8 0 0 0 -8 8v8h-24a8 8 0 0 0 -8 8v288a8 8 0 0 0 8 8h344v8a8 8 0 0 0 12.438 6.656l19.562-13.041 19.562 13.041a8 8 0 0 0 12.438-6.656v-8h56a8 8 0 0 0 8-8v-288a8 8 0 0 0 -8-8zm-40 0v256h-16v-256zm-208-5.333 20-26.667h156v256h-160a8 8 0 0 0 -6.4 3.2l-9.6 12.8zm-176 261.333v-16h160v16zm304-16v16h-120l12-16zm-304-240h160v224h-160zm-32 288v-272h16v248a8 8 0 0 0 8 8h312v16zm384 9.052-11.562-7.708a8 8 0 0 0 -8.876 0l-11.562 7.708v-57.052h32zm64-9.052h-48v-16h24a8 8 0 0 0 8-8v-248h16z" data-original="#000000" class="" style="fill:#000000"/><path d="m88 200h48a8 8 0 0 0 8-8v-48a8 8 0 0 0 -8-8h-48a8 8 0 0 0 -8 8v48a8 8 0 0 0 8 8zm8-48h32v32h-32z" data-original="#000000" class="" style="fill:#000000"/><path d="m280 232h112a8 8 0 0 0 8-8v-48a8 8 0 0 0 -8-8h-112a8 8 0 0 0 -8 8v48a8 8 0 0 0 8 8zm8-48h96v32h-96z" data-original="#000000" class="" style="fill:#000000"/><path d="m200 136h-32a8 8 0 0 0 -8 8v112a8 8 0 0 0 8 8h32a8 8 0 0 0 8-8v-112a8 8 0 0 0 -8-8zm-8 112h-16v-96h16z" data-original="#000000" class="" style="fill:#000000"/><path d="m136 216h-32a8 8 0 0 0 0 16h32a8 8 0 0 0 0-16z" data-original="#000000" class="" style="fill:#000000"/><path d="m88 264h48a8 8 0 0 0 0-16h-48a8 8 0 0 0 0 16z" data-original="#000000" class="" style="fill:#000000"/><path d="m296 120h96a8 8 0 0 0 0-16h-96a8 8 0 0 0 0 16z" data-original="#000000" class="" style="fill:#000000"/><path d="m280 152h112a8 8 0 0 0 0-16h-112a8 8 0 0 0 0 16z" data-original="#000000" class="" style="fill:#000000"/><path d="m280 296h112a8 8 0 0 0 0-16h-112a8 8 0 0 0 0 16z" data-original="#000000" class="" style="fill:#000000"/><path d="m280 328h112a8 8 0 0 0 0-16h-112a8 8 0 0 0 0 16z" data-original="#000000" class="" style="fill:#000000"/><path d="m280 264h112a8 8 0 0 0 0-16h-112a8 8 0 0 0 0 16z" data-original="#000000" class="" style="fill:#000000"/><path d="m200 280h-112a8 8 0 0 0 0 16h112a8 8 0 0 0 0-16z" data-original="#000000" class="" style="fill:#000000"/><path d="m200 312h-112a8 8 0 0 0 0 16h112a8 8 0 0 0 0-16z" data-original="#000000" class="" style="fill:#000000"/></g> </svg>
