<?xml version="1.0" encoding="iso-8859-1"?>
<!-- Generator: Adobe Illustrator 19.0.0, SVG Export Plug-In . SVG Version: 6.00 Build 0)  -->
<svg version="1.1" id="Capa_1" xmlns="http://www.w3.org/2000/svg" xmlns:xlink="http://www.w3.org/1999/xlink" x="0px" y="0px"
	 viewBox="0 0 512 512" style="enable-background:new 0 0 512 512;" xml:space="preserve">
<path style="fill:#695A6E;" d="M104.141,512c-13.477,0-24.402-10.925-24.402-24.402V292.553c0-13.477,10.925-24.402,24.402-24.402
	s24.402,10.925,24.402,24.402v195.045C128.543,501.075,117.618,512,104.141,512z"/>
<path style="fill:#414B82;" d="M265.609,191.218l-29.856-63.157c-8.839-18.701-27.917-30.705-48.601-30.705H78.554
	c-27.593,0-50.371,21.973-50.511,48.768v146.077c0,11.585,9.392,20.977,20.977,20.977l0,0c11.585,0,20.977-9.391,20.977-20.977
	V146.309c0.043-3.754,4.033-7.039,8.558-7.039h1.173v153.384h107.709v-59.232l63.712-13.728c4.509-0.972,8.682-3.282,11.644-6.817
	C267.978,206.687,268.929,198.239,265.609,191.218z M187.435,192.096v-54.063h0.237v-0.338c4.937,0.196,9.434,3.142,11.556,7.63
	l18.975,40.14L187.435,192.096z"/>
<path style="fill:#BA6746;" d="M28.056,281.874V292.1c0,11.585,9.391,20.977,20.977,20.977s20.977-9.392,20.977-20.977v-10.226
	H28.056z"/>
<rect x="28.056" y="281.869" style="fill:#FFFFFF;" width="41.952" height="10.226"/>
<path style="fill:#50374B;" d="M163.046,512c-13.477,0-24.402-10.925-24.402-24.402V292.553c0-13.477,10.925-24.402,24.402-24.402
	c13.477,0,24.402,10.925,24.402,24.402v195.045C187.448,501.075,176.523,512,163.046,512z"/>
<circle style="fill:#BA6746;" cx="133.585" cy="42.142" r="42.142"/>
<path style="fill:#323E6D;" d="M265.621,191.116l-29.856-63.157c-8.839-18.701-27.917-30.602-48.601-30.602h-53.559l-0.011,195.195
	h53.854V233.32l64.166-13.826c6.026-1.298,11.13-5.278,13.859-10.806C268.202,203.161,268.256,196.688,265.621,191.116z
	 M187.448,191.994v-54.063h0.237v-0.338c4.937,0.196,9.434,3.141,11.557,7.63l18.975,40.14L187.448,191.994z"/>
<polygon style="fill:#FFFFFF;" points="133.615,97.357 102.567,97.357 133.604,178.732 164.653,97.357 "/>
<path style="fill:#82BE50;" d="M147.077,125.12l-6.911-12.569l5.998-10.908c1.081-1.966-0.343-4.426-2.58-4.285h-19.939
	c-2.254-0.14-3.683,2.316-2.601,4.285l5.998,10.908l-6.911,12.569c-0.953,1.733-1.262,3.745-0.874,5.683l3.632,19.811l10.716,28.119
	l10.716-28.119l3.632-19.811C148.339,128.864,148.03,126.852,147.077,125.12z"/>
<path style="fill:#51946F;" d="M143.574,97.357c2.244,0,3.673,2.316,2.59,4.285l-5.998,10.908l6.911,12.569
	c0.953,1.733,1.262,3.745,0.874,5.683l-3.632,19.81l-10.716,28.119V97.357H143.574z"/>
<rect x="150.39" y="163.805" style="fill:#373C41;" width="24.104" height="7.029"/>
<path style="fill:#B4D7DC;" d="M184.443,209.997l-39.893,23.34c-3.085,1.806-7.051,0.767-8.856-2.318l-36.743-62.802
	c-1.806-3.085-0.767-7.051,2.318-8.856l39.893-23.34c3.085-1.806,7.051-0.767,8.856,2.318l36.743,62.801
	C188.567,204.226,187.529,208.191,184.443,209.997z"/>
<path style="fill:#E4F2F6;" d="M219.366,221.09l-39.893,23.34c-3.085,1.806-7.051,0.767-8.856-2.318l-36.743-62.801
	c-1.806-3.085-0.767-7.051,2.318-8.856l39.893-23.34c3.085-1.806,7.051-0.767,8.856,2.318l36.743,62.801
	C223.49,215.32,222.452,219.284,219.366,221.09z"/>
<path style="fill:#323E6D;" d="M149.921,220.867c-2.349-10.905,4.586-21.65,15.491-24.001l77.691-16.74
	c10.909-2.353,21.652,4.586,24.002,15.491c2.349,10.905-4.586,21.651-15.491,24.001l-77.691,16.74
	C162.97,238.718,152.261,231.726,149.921,220.867z"/>
<path style="fill:#BA6746;" d="M165.413,196.866c-10.905,2.349-17.841,13.095-15.491,24.001
	c2.339,10.859,13.05,17.851,24.002,15.491L165.413,196.866z"/>
<rect x="169.553" y="195.363" transform="matrix(-0.9776 0.2106 -0.2106 -0.9776 390.714 389.5166)" style="fill:#FFFFFF;" width="10.127" height="40.398"/>
<rect x="269.717" y="295.916" style="fill:#292D30;" width="20.032" height="43.195"/>
<path style="fill:#80391B;" d="M265.982,417.006h27.421c3.504,0,6.345-2.841,6.345-6.345v-69.908c0-3.504-2.841-6.345-6.345-6.345
	h-27.421c-3.504,0-6.345,2.841-6.345,6.345v69.908C259.637,414.165,262.478,417.006,265.982,417.006z"/>
<g>
	<path style="fill:#632C15;" d="M259.684,411.406c-0.005-0.043-0.012-0.085-0.016-0.128
		C259.672,411.321,259.679,411.363,259.684,411.406z"/>
	<path style="fill:#632C15;" d="M260.078,338.44c0.044-0.114,0.093-0.226,0.144-0.336
		C260.171,338.214,260.122,338.326,260.078,338.44z"/>
	<path style="fill:#632C15;" d="M293.403,334.408h-27.421c-1.752,0-3.338,0.71-4.486,1.858c1.148-1.148,2.734-1.858,4.486-1.858
		h13.757v82.597h13.665c3.504,0,6.345-2.841,6.345-6.345v-69.908C299.748,337.249,296.907,334.408,293.403,334.408z"/>
	<path style="fill:#632C15;" d="M260.514,413.87c-0.037-0.062-0.078-0.121-0.112-0.185
		C260.437,413.749,260.478,413.808,260.514,413.87z"/>
	<path style="fill:#632C15;" d="M260.393,413.665c-0.164-0.306-0.3-0.628-0.413-0.962
		C260.092,413.037,260.228,413.359,260.393,413.665z"/>
</g>
<path style="fill:#FFA385;" d="M435.234,340.361v148.743c0,12.646-10.251,22.896-22.896,22.896
	c-12.645,0-22.897-10.251-22.897-22.896V340.361H435.234z"/>
<path style="fill:#FFB69E;" d="M379.556,340.361v148.743c0,12.646-10.251,22.896-22.896,22.896
	c-12.646,0-22.897-10.251-22.897-22.896V340.361H379.556z"/>
<path style="fill:#414B82;" d="M433.099,197.786c0,0,4.082,11.325,9.565,26.538c-0.153-1.585-0.326-3.576,0.392,0.354
	c-2.026-11.102,2.924-21.118,14.031-24.714c6.151-1.99,13.684,0.027,18.853,4.414c-5.405-15.134-10.498-29.541-14.271-40.52
	c-8.852-25.76-23.695-38.821-44.117-38.821h-66.109c-20.421,0-35.265,13.062-44.117,38.822
	c-13.72,39.926-44.875,125.16-45.188,126.017c-3.619,9.897,1.471,20.853,11.368,24.472c9.881,3.614,20.847-1.456,24.472-11.367
	c0.266-0.727,37.92-105.195,37.92-105.195l-27.101,142.084c-1.272,6.568,3.765,12.628,10.406,12.628h130.59
	c6.62,0,11.677-6.064,10.406-12.628L433.099,197.786z"/>
<path style="fill:#FFB69E;" d="M297.979,302.982c-3.624,9.91-14.59,14.982-24.472,11.367c-9.897-3.619-14.987-14.575-11.368-24.472
	C262.177,289.774,298.065,302.747,297.979,302.982z"/>
<polygon style="fill:#FFFFFF;" points="301.311,293.848 265.434,280.731 262.141,289.878 297.981,302.982 "/>
<path style="fill:#323E6D;" d="M482.835,222.024c-0.147-0.411-14.813-41.316-20.576-58.082
	c-8.87-25.814-23.745-38.903-44.209-38.903h-0.496h-23.688h-9.38v227.459h65.307c6.62,0,11.677-6.064,10.406-12.628L443.725,253.5
	l25.773-6.48c5.233-1.315,9.667-4.782,12.207-9.543C484.247,232.717,484.657,227.103,482.835,222.024z M433.099,197.786
	c0,0,2.523,6.999,6.265,17.381l-2.814,0.708L433.099,197.786z"/>
<circle style="fill:#FFB69E;" cx="384.502" cy="71.091" r="39.544"/>
<polygon style="fill:#FFFFFF;" points="355.113,125.039 384.495,202.148 413.885,125.039 "/>
<path style="fill:#FFC305;" d="M397.276,151.289l-6.527-11.873l5.626-10.232c1.023-1.861-0.325-4.146-2.452-4.146h-18.859
	c-2.124,0-3.476,2.282-2.452,4.146l5.645,10.266l-6.509,11.839c-0.901,1.639-1.194,3.543-0.828,5.378l4.016,20.383l9.56,25.098
	l9.57-25.102l4.038-20.377C398.47,154.834,398.177,152.928,397.276,151.289z"/>
<path style="fill:#FA870A;" d="M397.276,151.289l-6.527-11.873l5.626-10.232c1.023-1.861-0.325-4.146-2.452-4.146h-9.427v77.093
	v0.016l9.57-25.102l4.038-20.376C398.47,154.834,398.177,152.928,397.276,151.289z"/>
<path style="fill:#B4D7DC;" d="M429.866,224.695c1.173,4.537-1.554,9.165-6.091,10.338l-36.453,9.424
	c-4.537,1.173-9.165-1.554-10.338-6.091l-15.549-60.148c-1.173-4.537,1.554-9.165,6.091-10.338l36.453-9.424
	c4.537-1.173,9.165,1.554,10.338,6.091L429.866,224.695z"/>
<path style="fill:#E4F2F6;" d="M426.745,233.338c1.974,4.25,0.129,9.296-4.121,11.269l-34.148,15.861
	c-4.25,1.974-9.296,0.129-11.269-4.121l-26.172-56.344c-1.974-4.25-0.129-9.296,4.121-11.269l34.148-15.861
	c4.25-1.974,9.296-0.129,11.269,4.121L426.745,233.338z"/>
<path style="fill:#323E6D;" d="M436.452,215.899l-45.264,11.38c-10.24,2.575-16.456,12.963-13.881,23.205
	c2.181,8.676,9.971,14.463,18.528,14.463c1.544,0,3.112-0.188,4.677-0.582l43.116-10.84L436.452,215.899z"/>
<path style="fill:#FFFFFF;" d="M400.512,224.934l-9.325,2.344c-10.24,2.575-16.456,12.963-13.881,23.205
	c2.181,8.676,9.971,14.463,18.528,14.463c1.544,0,3.112-0.188,4.677-0.582l9.665-2.429L400.512,224.934z"/>
<path style="fill:#FFB69E;" d="M391.187,227.28c-10.24,2.575-16.456,12.963-13.881,23.205c2.181,8.676,9.971,14.463,18.528,14.463
	c1.544,0,3.112-0.188,4.677-0.582L391.187,227.28z"/>
<g>
</g>
<g>
</g>
<g>
</g>
<g>
</g>
<g>
</g>
<g>
</g>
<g>
</g>
<g>
</g>
<g>
</g>
<g>
</g>
<g>
</g>
<g>
</g>
<g>
</g>
<g>
</g>
<g>
</g>
</svg>
