<svg id="Capa_1" data-name="Capa 1" xmlns="http://www.w3.org/2000/svg" viewBox="0 0 536.52 557.74"><defs><style>.cls-1{fill:#00af80;}.cls-2{fill:#1c8d76;}.cls-3{fill:#e6e6e6;}.cls-4{fill:#f5f5f5;}.cls-5{fill:#50758d;}.cls-6{fill:#f4c20d;}.cls-7{fill:#2b597f;}.cls-8{fill:#fff;}</style></defs><title>results</title><path class="cls-1" d="M482.5,94.5v77H35.5v-77a30,30,0,0,1,30-30h387a30,30,0,0,1,30,30Z" transform="translate(-28 -7)"/><path class="cls-2" d="M155.5,64.5v56a10,10,0,0,1-10,10h-46a10,10,0,0,1-10-10v-56Z" transform="translate(-28 -7)"/><path class="cls-2" d="M412.5,64.5v56a10,10,0,0,1-10,10h-46a10,10,0,0,1-10-10v-56Z" transform="translate(-28 -7)"/><path class="cls-2" d="M51.5,68V171.5h-16v-77A30,30,0,0,1,51.5,68Z" transform="translate(-28 -7)"/><path class="cls-3" d="M117.5,231.32H169a5,5,0,0,1,5,5v51.45a5,5,0,0,1-5,5H117.5a5,5,0,0,1-5-5V236.32a5,5,0,0,1,5-5Z" transform="translate(-28 -7)"/><path class="cls-3" d="M117.5,307.77H169a5,5,0,0,1,5,5v51.46a5,5,0,0,1-5,5H117.5a5,5,0,0,1-5-5V312.77A5,5,0,0,1,117.5,307.77Z" transform="translate(-28 -7)"/><path class="cls-3" d="M117.5,384.23H169a5,5,0,0,1,5,5v51.45a5,5,0,0,1-5,5H117.5a5,5,0,0,1-5-5V389.23A5,5,0,0,1,117.5,384.23Z" transform="translate(-28 -7)"/><path class="cls-3" d="M194,231.32H246.5a5,5,0,0,1,5,5v51.45a5,5,0,0,1-5,5H194a5,5,0,0,1-5-5V236.32a5,5,0,0,1,5-5Z" transform="translate(-28 -7)"/><path class="cls-3" d="M194,307.77H246.5a5,5,0,0,1,5,5v51.46a5,5,0,0,1-5,5H194a5,5,0,0,1-5-5V312.77A5,5,0,0,1,194,307.77Z" transform="translate(-28 -7)"/><path class="cls-3" d="M194,384.23H246.5a5,5,0,0,1,5,5v51.45a5,5,0,0,1-5,5H194a5,5,0,0,1-5-5V389.23A5,5,0,0,1,194,384.23Z" transform="translate(-28 -7)"/><path class="cls-3" d="M271.5,231.32h52.55a5,5,0,0,1,5,5v51.45a5,5,0,0,1-5,5H271.5a5,5,0,0,1-5-5V236.32a5,5,0,0,1,5-5Z" transform="translate(-28 -7)"/><path class="cls-3" d="M271.5,307.77h52.55a5,5,0,0,1,5,5v51.46a5,5,0,0,1-5,5H271.5a5,5,0,0,1-5-5V312.77A5,5,0,0,1,271.5,307.77Z" transform="translate(-28 -7)"/><path class="cls-3" d="M271.5,384.23h52.55a5,5,0,0,1,5,5v51.45a5,5,0,0,1-5,5H271.5a5,5,0,0,1-5-5V389.23A5,5,0,0,1,271.5,384.23Z" transform="translate(-28 -7)"/><path class="cls-3" d="M405.5,236.32v51.45a5,5,0,0,1-5,5H349.05a5,5,0,0,1-5-5V236.32a5,5,0,0,1,5-5H400.5a5,5,0,0,1,5,5Z" transform="translate(-28 -7)"/><path class="cls-3" d="M349.05,307.77H400.5a5,5,0,0,1,5,5v51.46a5,5,0,0,1-5,5H349.05a5,5,0,0,1-5-5V312.77A5,5,0,0,1,349.05,307.77Z" transform="translate(-28 -7)"/><path class="cls-3" d="M349.05,384.23H400.5a5,5,0,0,1,5,5v51.45a5,5,0,0,1-5,5H349.05a5,5,0,0,1-5-5V389.23A5,5,0,0,1,349.05,384.23Z" transform="translate(-28 -7)"/><path class="cls-4" d="M35.5,164.5v317a30,30,0,0,0,30,30h387a30,30,0,0,0,30-30v-317Z" transform="translate(-28 -7)"/><path class="cls-5" d="M155.5,24.5v80a10,10,0,0,1-10,10h-30a10,10,0,0,1-10-10v-80a10,10,0,0,1,10-10h30A10,10,0,0,1,155.5,24.5Z" transform="translate(-28 -7)"/><path class="cls-6" d="M112.5,231.32H174v61.45H112.5Z" transform="translate(-28 -7)"/><path class="cls-6" d="M344.05,231.32H405.5v61.45H344.05Z" transform="translate(-28 -7)"/><path class="cls-6" d="M189,231.32H251.5v61.45H189Z" transform="translate(-28 -7)"/><path class="cls-6" d="M112.5,307.77H174v61.46H112.5Z" transform="translate(-28 -7)"/><path class="cls-3" d="M344.05,307.77H405.5v61.46H344.05Z" transform="translate(-28 -7)"/><path class="cls-6" d="M189,307.77H251.5v61.46H189Z" transform="translate(-28 -7)"/><path class="cls-3" d="M112.5,384.23H174v61.45H112.5Z" transform="translate(-28 -7)"/><path class="cls-3" d="M344.05,384.23H405.5v61.45H344.05Z" transform="translate(-28 -7)"/><path class="cls-3" d="M189,384.23H251.5v61.45H189Z" transform="translate(-28 -7)"/><path class="cls-6" d="M266.5,231.32h62.55v61.45H266.5Z" transform="translate(-28 -7)"/><path class="cls-6" d="M266.5,307.77h62.55v61.46H266.5Z" transform="translate(-28 -7)"/><path class="cls-3" d="M266.5,384.23h62.55v61.45H266.5Z" transform="translate(-28 -7)"/><path class="cls-5" d="M412.5,24.5v80a10,10,0,0,1-10,10h-30a10,10,0,0,1-10-10v-80a10,10,0,0,1,10-10h30A10,10,0,0,1,412.5,24.5Z" transform="translate(-28 -7)"/><path class="cls-3" d="M35.5,164.5v317a30,30,0,0,0,30,30H76.58A30,30,0,0,1,52,482V185.72a8,8,0,0,1,7.5-5.22h423v-16Z" transform="translate(-28 -7)"/><path class="cls-7" d="M131.5,114.5h-16a10,10,0,0,1-10-10v-80a10,10,0,0,1,10-10h6v90A10,10,0,0,0,131.5,114.5Z" transform="translate(-28 -7)"/><path class="cls-7" d="M388.5,114.5h-16a10,10,0,0,1-10-10v-80a10,10,0,0,1,10-10h6v90A10,10,0,0,0,388.5,114.5Z" transform="translate(-28 -7)"/><path d="M482.5,386.5A7.5,7.5,0,0,0,475,394v87.5A22.52,22.52,0,0,1,452.5,504h-254a7.5,7.5,0,0,0,0,15h254A37.54,37.54,0,0,0,490,481.5V394A7.5,7.5,0,0,0,482.5,386.5Z" transform="translate(-28 -7)"/><path d="M452.5,57H420V24.5A17.52,17.52,0,0,0,402.5,7h-30A17.52,17.52,0,0,0,355,24.5V57H163V24.5A17.52,17.52,0,0,0,145.5,7h-30A17.52,17.52,0,0,0,98,24.5V57H65.5A37.54,37.54,0,0,0,28,94.5v387A37.54,37.54,0,0,0,65.5,519h98a7.5,7.5,0,0,0,0-15h-98A22.52,22.52,0,0,1,43,481.5V172H328.5a7.5,7.5,0,0,0,0-15H43V94.5A22.52,22.52,0,0,1,65.5,72H98v32.5A17.52,17.52,0,0,0,115.5,122h30A17.52,17.52,0,0,0,163,104.5V72H355v32.5A17.52,17.52,0,0,0,372.5,122h30A17.52,17.52,0,0,0,420,104.5V72h32.5A22.52,22.52,0,0,1,475,94.5V157H363.5a7.5,7.5,0,0,0,0,15H475V359a7.5,7.5,0,0,0,15,0V94.5A37.54,37.54,0,0,0,452.5,57ZM148,104.5a2.5,2.5,0,0,1-2.5,2.5h-30a2.5,2.5,0,0,1-2.5-2.5v-80a2.5,2.5,0,0,1,2.5-2.5h30a2.5,2.5,0,0,1,2.5,2.5Zm257,0a2.5,2.5,0,0,1-2.5,2.5h-30a2.5,2.5,0,0,1-2.5-2.5v-80a2.5,2.5,0,0,1,2.5-2.5h30a2.5,2.5,0,0,1,2.5,2.5Z" transform="translate(-28 -7)"/><path d="M336.55,460.68h68.8a15.16,15.16,0,0,0,15.15-15.14V231.46a15.16,15.16,0,0,0-15.15-15.14H112.65A15.16,15.16,0,0,0,97.5,231.46V445.54a15.16,15.16,0,0,0,15.15,15.14h223.9Zm-224-152.91H174v61.46H112.5Zm76.45,0H251.5v61.46H189ZM405.5,369.23H344.05V307.77H405.5Zm-76.45,0H266.5V307.77h62.55Zm-62.55,15h62.55v61.45H266.5Zm139,61.31a.15.15,0,0,1-.15.14h-61.3V384.23H405.5Zm0-214.08v61.31H344.05V231.32h61.3a.15.15,0,0,1,.15.14Zm-76.45,61.31H266.5V231.32h62.55Zm-77.55,0H189V231.32H251.5Zm-139-61.31a.15.15,0,0,1,.15-.14H174v61.45H112.5Zm0,214.08V384.23H174v61.45H112.64a.14.14,0,0,1-.14-.14ZM189,384.23H251.5v61.45H189Z" transform="translate(-28 -7)"/><path class="cls-1" d="M457,355.52A101.72,101.72,0,1,1,355.3,457.24h0A101.44,101.44,0,0,1,456.45,355.52ZM441.13,501.45l72.25-72.24L496.9,413,441.13,468.8l-24-23.7-16.48,16.19Z" transform="translate(-28 -7)"/><polygon class="cls-8" points="485.38 422.21 413.13 494.45 372.67 454.29 389.15 438.1 413.13 461.8 468.9 406.03 485.38 422.21"/><path d="M457,564.74a107.5,107.5,0,1,1,107.5-107.5h0A107.78,107.78,0,0,1,457,564.74Zm0-203.44a95.94,95.94,0,1,0,96,95.94,95.94,95.94,0,0,0-96-95.94Z" transform="translate(-28 -7)"/><path d="M441.13,507.23a5.76,5.76,0,0,1-4.33-1.73l-40.17-40.17a5.49,5.49,0,0,1-.34-7.76l.34-.33,16.47-16.47a6.07,6.07,0,0,1,8.09,0l19.94,19.94L492.86,409a5.5,5.5,0,0,1,7.76-.33l.33.33,16.47,16.18a5.49,5.49,0,0,1,.34,7.76,3.51,3.51,0,0,1-.34.33L445.18,505.5A5.77,5.77,0,0,1,441.13,507.23Zm-32.08-45.94,32.08,32.07L505,429.21l-8.1-8.09-51.72,51.72a6.07,6.07,0,0,1-8.38,0l-19.65-19.65Z" transform="translate(-28 -7)"/></svg>