<svg id="Capa_1" data-name="Capa 1" xmlns="http://www.w3.org/2000/svg" viewBox="0 0 522 556.25"><defs><style>.cls-1{fill:#00af80;}.cls-2{fill:#1c8d76;}.cls-3{fill:#e6e6e6;}.cls-4{fill:#f5f5f5;}.cls-5{fill:#50758d;}.cls-6{fill:#f4c20d;}.cls-7{fill:#2b597f;}.cls-8{fill:#fff;}</style></defs><title>result</title><path class="cls-1" d="M482.5,94.5v77H35.5v-77a30,30,0,0,1,30-30h387a30,30,0,0,1,30,30Z" transform="translate(-28 -7)"/><path class="cls-2" d="M155.5,64.5v56a10,10,0,0,1-10,10h-46a10,10,0,0,1-10-10v-56Z" transform="translate(-28 -7)"/><path class="cls-2" d="M412.5,64.5v56a10,10,0,0,1-10,10h-46a10,10,0,0,1-10-10v-56Z" transform="translate(-28 -7)"/><path class="cls-2" d="M51.5,68V171.5h-16v-77A30,30,0,0,1,51.5,68Z" transform="translate(-28 -7)"/><path class="cls-3" d="M117.5,231.32H169a5,5,0,0,1,5,5v51.45a5,5,0,0,1-5,5H117.5a5,5,0,0,1-5-5V236.32a5,5,0,0,1,5-5Z" transform="translate(-28 -7)"/><path class="cls-3" d="M117.5,307.77H169a5,5,0,0,1,5,5v51.46a5,5,0,0,1-5,5H117.5a5,5,0,0,1-5-5V312.77A5,5,0,0,1,117.5,307.77Z" transform="translate(-28 -7)"/><path class="cls-3" d="M117.5,384.23H169a5,5,0,0,1,5,5v51.45a5,5,0,0,1-5,5H117.5a5,5,0,0,1-5-5V389.23A5,5,0,0,1,117.5,384.23Z" transform="translate(-28 -7)"/><path class="cls-3" d="M194,231.32H246.5a5,5,0,0,1,5,5v51.45a5,5,0,0,1-5,5H194a5,5,0,0,1-5-5V236.32a5,5,0,0,1,5-5Z" transform="translate(-28 -7)"/><path class="cls-3" d="M194,307.77H246.5a5,5,0,0,1,5,5v51.46a5,5,0,0,1-5,5H194a5,5,0,0,1-5-5V312.77A5,5,0,0,1,194,307.77Z" transform="translate(-28 -7)"/><path class="cls-3" d="M194,384.23H246.5a5,5,0,0,1,5,5v51.45a5,5,0,0,1-5,5H194a5,5,0,0,1-5-5V389.23A5,5,0,0,1,194,384.23Z" transform="translate(-28 -7)"/><path class="cls-3" d="M271.5,231.32h52.55a5,5,0,0,1,5,5v51.45a5,5,0,0,1-5,5H271.5a5,5,0,0,1-5-5V236.32a5,5,0,0,1,5-5Z" transform="translate(-28 -7)"/><path class="cls-3" d="M271.5,307.77h52.55a5,5,0,0,1,5,5v51.46a5,5,0,0,1-5,5H271.5a5,5,0,0,1-5-5V312.77A5,5,0,0,1,271.5,307.77Z" transform="translate(-28 -7)"/><path class="cls-3" d="M271.5,384.23h52.55a5,5,0,0,1,5,5v51.45a5,5,0,0,1-5,5H271.5a5,5,0,0,1-5-5V389.23A5,5,0,0,1,271.5,384.23Z" transform="translate(-28 -7)"/><path class="cls-3" d="M405.5,236.32v51.45a5,5,0,0,1-5,5H349.05a5,5,0,0,1-5-5V236.32a5,5,0,0,1,5-5H400.5a5,5,0,0,1,5,5Z" transform="translate(-28 -7)"/><path class="cls-3" d="M349.05,307.77H400.5a5,5,0,0,1,5,5v51.46a5,5,0,0,1-5,5H349.05a5,5,0,0,1-5-5V312.77A5,5,0,0,1,349.05,307.77Z" transform="translate(-28 -7)"/><path class="cls-3" d="M349.05,384.23H400.5a5,5,0,0,1,5,5v51.45a5,5,0,0,1-5,5H349.05a5,5,0,0,1-5-5V389.23A5,5,0,0,1,349.05,384.23Z" transform="translate(-28 -7)"/><path class="cls-4" d="M35.5,164.5v317a30,30,0,0,0,30,30h387a30,30,0,0,0,30-30v-317Z" transform="translate(-28 -7)"/><path class="cls-5" d="M155.5,24.5v80a10,10,0,0,1-10,10h-30a10,10,0,0,1-10-10v-80a10,10,0,0,1,10-10h30A10,10,0,0,1,155.5,24.5Z" transform="translate(-28 -7)"/><path class="cls-6" d="M112.5,231.32H174v61.45H112.5Z" transform="translate(-28 -7)"/><path class="cls-6" d="M344.05,231.32H405.5v61.45H344.05Z" transform="translate(-28 -7)"/><path class="cls-6" d="M189,231.32H251.5v61.45H189Z" transform="translate(-28 -7)"/><path class="cls-6" d="M112.5,307.77H174v61.46H112.5Z" transform="translate(-28 -7)"/><path class="cls-3" d="M344.05,307.77H405.5v61.46H344.05Z" transform="translate(-28 -7)"/><path class="cls-6" d="M189,307.77H251.5v61.46H189Z" transform="translate(-28 -7)"/><path class="cls-3" d="M112.5,384.23H174v61.45H112.5Z" transform="translate(-28 -7)"/><path class="cls-3" d="M344.05,384.23H405.5v61.45H344.05Z" transform="translate(-28 -7)"/><path class="cls-3" d="M189,384.23H251.5v61.45H189Z" transform="translate(-28 -7)"/><path class="cls-6" d="M266.5,231.32h62.55v61.45H266.5Z" transform="translate(-28 -7)"/><path class="cls-6" d="M266.5,307.77h62.55v61.46H266.5Z" transform="translate(-28 -7)"/><path class="cls-3" d="M266.5,384.23h62.55v61.45H266.5Z" transform="translate(-28 -7)"/><path class="cls-5" d="M412.5,24.5v80a10,10,0,0,1-10,10h-30a10,10,0,0,1-10-10v-80a10,10,0,0,1,10-10h30A10,10,0,0,1,412.5,24.5Z" transform="translate(-28 -7)"/><path class="cls-3" d="M35.5,164.5v317a30,30,0,0,0,30,30H76.58A30,30,0,0,1,52,482V185.72a8,8,0,0,1,7.5-5.22h423v-16Z" transform="translate(-28 -7)"/><path class="cls-7" d="M131.5,114.5h-16a10,10,0,0,1-10-10v-80a10,10,0,0,1,10-10h6v90A10,10,0,0,0,131.5,114.5Z" transform="translate(-28 -7)"/><path class="cls-7" d="M388.5,114.5h-16a10,10,0,0,1-10-10v-80a10,10,0,0,1,10-10h6v90A10,10,0,0,0,388.5,114.5Z" transform="translate(-28 -7)"/><path d="M482.5,386.5A7.5,7.5,0,0,0,475,394v87.5A22.52,22.52,0,0,1,452.5,504h-254a7.5,7.5,0,0,0,0,15h254A37.54,37.54,0,0,0,490,481.5V394A7.5,7.5,0,0,0,482.5,386.5Z" transform="translate(-28 -7)"/><path d="M452.5,57H420V24.5A17.52,17.52,0,0,0,402.5,7h-30A17.52,17.52,0,0,0,355,24.5V57H163V24.5A17.52,17.52,0,0,0,145.5,7h-30A17.52,17.52,0,0,0,98,24.5V57H65.5A37.54,37.54,0,0,0,28,94.5v387A37.54,37.54,0,0,0,65.5,519h98a7.5,7.5,0,0,0,0-15h-98A22.52,22.52,0,0,1,43,481.5V172H328.5a7.5,7.5,0,0,0,0-15H43V94.5A22.52,22.52,0,0,1,65.5,72H98v32.5A17.52,17.52,0,0,0,115.5,122h30A17.52,17.52,0,0,0,163,104.5V72H355v32.5A17.52,17.52,0,0,0,372.5,122h30A17.52,17.52,0,0,0,420,104.5V72h32.5A22.52,22.52,0,0,1,475,94.5V157H363.5a7.5,7.5,0,0,0,0,15H475V359a7.5,7.5,0,0,0,15,0V94.5A37.54,37.54,0,0,0,452.5,57ZM148,104.5a2.5,2.5,0,0,1-2.5,2.5h-30a2.5,2.5,0,0,1-2.5-2.5v-80a2.5,2.5,0,0,1,2.5-2.5h30a2.5,2.5,0,0,1,2.5,2.5Zm257,0a2.5,2.5,0,0,1-2.5,2.5h-30a2.5,2.5,0,0,1-2.5-2.5v-80a2.5,2.5,0,0,1,2.5-2.5h30a2.5,2.5,0,0,1,2.5,2.5Z" transform="translate(-28 -7)"/><path d="M336.55,460.68h68.8a15.16,15.16,0,0,0,15.15-15.14V231.46a15.16,15.16,0,0,0-15.15-15.14H112.65A15.16,15.16,0,0,0,97.5,231.46V445.54a15.16,15.16,0,0,0,15.15,15.14h223.9Zm-224-152.91H174v61.46H112.5Zm76.45,0H251.5v61.46H189ZM405.5,369.23H344.05V307.77H405.5Zm-76.45,0H266.5V307.77h62.55Zm-62.55,15h62.55v61.45H266.5Zm139,61.31a.15.15,0,0,1-.15.14h-61.3V384.23H405.5Zm0-214.08v61.31H344.05V231.32h61.3a.15.15,0,0,1,.15.14Zm-76.45,61.31H266.5V231.32h62.55Zm-77.55,0H189V231.32H251.5Zm-139-61.31a.15.15,0,0,1,.15-.14H174v61.45H112.5Zm0,214.08V384.23H174v61.45H112.64a.14.14,0,0,1-.14-.14ZM189,384.23H251.5v61.45H189Z" transform="translate(-28 -7)"/><path class="cls-1" d="M482.5,431.88a63.87,63.87,0,1,1-63.87,63.87h0a63.69,63.69,0,0,1,63.51-63.87Zm-10,91.63,45.36-45.36L507.54,468l-35,35-15.06-14.88-10.34,10.16Z" transform="translate(-28 -7)"/><polygon class="cls-8" points="489.88 471.15 444.52 516.51 419.12 491.29 429.46 481.13 444.52 496.01 479.54 460.99 489.88 471.15"/><path d="M482.5,563.25a67.5,67.5,0,1,1,67.5-67.5h0A67.68,67.68,0,0,1,482.5,563.25Zm0-127.74a60.24,60.24,0,1,0,60.24,60.24,60.24,60.24,0,0,0-60.24-60.24Z" transform="translate(-28 -7)"/><path d="M472.52,527.14a3.6,3.6,0,0,1-2.72-1.09l-25.22-25.22a3.44,3.44,0,0,1-.21-4.87l.21-.21,10.34-10.34a3.8,3.8,0,0,1,5.08,0l12.52,12.52L505,465.45a3.44,3.44,0,0,1,4.87-.21l.21.21,10.34,10.16a3.44,3.44,0,0,1,.21,4.87,2.08,2.08,0,0,1-.21.21l-45.36,45.36A3.58,3.58,0,0,1,472.52,527.14Zm-20.14-28.85,20.14,20.14,40.1-40.28-5.08-5.08-32.48,32.48a3.82,3.82,0,0,1-5.26,0l-12.34-12.34Z" transform="translate(-28 -7)"/></svg>