<svg id="bold" xmlns="http://www.w3.org/2000/svg" viewBox="0 0 384 512"><defs><style>.cls-1{fill:#fff;}</style></defs><title>confirm</title><path d="M400,192H384V128a128,128,0,0,0-256,0v64H112a48.06,48.06,0,0,0-48,48V464a48.06,48.06,0,0,0,48,48H400a48.06,48.06,0,0,0,48-48V240A48.06,48.06,0,0,0,400,192ZM170.67,128a85.33,85.33,0,1,1,170.66,0v64H170.67Zm128,192" transform="translate(-64 0)"/><polygon class="cls-1" points="180.77 426.47 114.58 374.87 133.4 350.69 174.05 382.38 241.14 285.51 266.31 302.96 180.77 426.47"/></svg>