<?xml version="1.0"?>
<svg xmlns="http://www.w3.org/2000/svg" xmlns:xlink="http://www.w3.org/1999/xlink" version="1.1" id="Layer_1" x="0px" y="0px" viewBox="0 0 512 512" style="enable-background:new 0 0 512 512;" xml:space="preserve" width="512px" height="512px" class=""><g><circle style="fill:#2ABEA0" cx="256" cy="256" r="256" data-original="#9EA7DB" class="" data-old_color="#9EA7DB"/><path style="fill:#1C8D76" d="M501.832,327.607c-30.479,104.804-126.153,181.848-240.198,184.319L105.051,355.343l1.334-40.943  l127.598-87.841l35.878-130.91L501.832,327.607z" data-original="#8C95C9" class="active-path" data-old_color="#8C95C9"/><path style="fill:#F9F9F9;" d="M188.556,215.65c0,0-46.058,9.908-60.76,19.804c-14.69,9.908-20.126,35.804-21.411,78.946  c-0.457,15.764-0.927,29.663-1.334,40.943h44.057l5.016-47.973l1.791,47.973h156.138l2.829-47.973l3.991,47.973h43.229  c-0.395-11.28-0.865-25.179-1.334-40.943c-1.273-43.142-6.709-69.038-21.411-78.946c-15.641-10.526-55.361-18.557-78.526-23.486  l-2.805-12.589c12.614-12.849,20.991-34.803,20.991-57.227c0-34.976-8.525-57.881-45.44-57.881  c-36.903,0-45.428,22.905-45.428,57.881c0,22.201,8.203,43.933,20.62,56.844l-2.891,12.972L188.556,215.65z" data-original="#F9F9F9"/><circle style="fill:#FF8C8A;" cx="334.562" cy="355.341" r="72.382" data-original="#FF8C8A" class=""/><g>
	<rect x="298.932" y="348.511" style="fill:#FFFFFF" width="71.249" height="13.664" data-original="#FFFFFF" class="" data-old_color="#FFFFFF"/>
	<rect x="327.727" y="319.718" style="fill:#FFFFFF" width="13.673" height="71.248" data-original="#FFFFFF" class="" data-old_color="#FFFFFF"/>
</g></g> </svg>
