<svg id="Capa_1" enable-background="new 0 0 512 512" height="512" viewBox="0 0 512 512" width="512" xmlns="http://www.w3.org/2000/svg"><g><circle cx="194.72" cy="256" fill="#60e2f4" r="179.72"/><path d="m374.44 256c0 99.26-80.46 179.72-179.72 179.72v-359.44c99.26 0 179.72 80.46 179.72 179.72z" fill="#29c5ec"/><path d="m194.72 61.28c-107.37 0-194.72 87.35-194.72 194.72s87.35 194.72 194.72 194.72 194.72-87.35 194.72-194.72-87.35-194.72-194.72-194.72zm149.24 125.06h-68.51c-3.71-23.21-9.28-44.59-16.53-62.94-3.42-8.64-7.16-16.44-11.19-23.37 42.56 14.51 77.33 45.98 96.23 86.31zm-93.18 69.66c0 13.54-.61 26.83-1.78 39.66h-108.56c-1.17-12.83-1.78-26.12-1.78-39.66s.61-26.83 1.78-39.66h108.56c1.17 12.83 1.78 26.12 1.78 39.66zm-92.36-121.57c10.53-26.61 24.44-43.15 36.3-43.15s25.77 16.54 36.3 43.15c5.99 15.16 10.72 32.74 14.04 51.91h-100.68c3.32-19.17 8.05-36.75 14.04-51.91zm-16.71-34.4c-4.03 6.93-7.77 14.73-11.19 23.37-7.25 18.35-12.82 39.73-16.53 62.94h-68.51c18.9-40.33 53.67-71.8 96.23-86.31zm-111.71 155.97c0-13.67 1.68-26.95 4.84-39.66h75.5c-1.11 12.91-1.68 26.18-1.68 39.66s.57 26.75 1.68 39.66h-75.5c-3.16-12.71-4.84-25.99-4.84-39.66zm15.48 69.66h68.51c3.71 23.21 9.28 44.59 16.53 62.94 3.42 8.64 7.16 16.44 11.19 23.37-42.56-14.51-77.33-45.98-96.23-86.31zm185.54 51.91c-10.53 26.61-24.44 43.15-36.3 43.15s-25.77-16.54-36.3-43.15c-5.99-15.16-10.72-32.74-14.04-51.91h100.68c-3.32 19.17-8.05 36.75-14.04 51.91zm16.71 34.4c4.03-6.93 7.77-14.73 11.19-23.37 7.25-18.35 12.82-39.73 16.53-62.94h68.51c-18.9 40.33-53.67 71.8-96.23 86.31zm31.37-116.31c1.11-12.91 1.68-26.18 1.68-39.66s-.57-26.75-1.68-39.66h75.5c3.16 12.71 4.84 25.99 4.84 39.66s-1.68 26.95-4.84 39.66z" fill="#f3f6ff"/><path d="m194.72 61.28v30c11.86 0 25.77 16.54 36.3 43.15 5.99 15.16 10.72 32.74 14.04 51.91h-50.34v30h54.28c1.17 12.83 1.78 26.12 1.78 39.66s-.61 26.83-1.78 39.66h-54.28v30h50.34c-3.32 19.17-8.05 36.75-14.04 51.91-10.53 26.61-24.44 43.15-36.3 43.15v30c107.37 0 194.72-87.35 194.72-194.72s-87.35-194.72-194.72-194.72zm53.01 38.75c42.56 14.51 77.33 45.98 96.23 86.31h-68.51c-3.71-23.21-9.28-44.59-16.53-62.94-3.42-8.64-7.16-16.44-11.19-23.37zm0 311.94c4.03-6.93 7.77-14.73 11.19-23.37 7.25-18.35 12.82-39.73 16.53-62.94h68.51c-18.9 40.33-53.67 71.8-96.23 86.31zm31.37-116.31c1.11-12.91 1.68-26.18 1.68-39.66s-.57-26.75-1.68-39.66h75.5c3.16 12.71 4.84 25.99 4.84 39.66s-1.68 26.95-4.84 39.66z" fill="#cddbf9"/><path d="m497 200.16v71.74c0 25.46-8.74 49.24-23.67 68.14s-36.05 32.9-60.82 38.79c-49.53-11.77-84.49-56.02-84.49-106.93v-71.74l84.49-44.33z" fill="#92ca32"/><path d="m497 200.16v71.74c0 25.46-8.74 49.24-23.67 68.14s-36.05 32.9-60.82 38.79v-223z" fill="#67b821"/><path d="m412.51 138.89-99.49 52.2v80.81c0 27.99 9.55 55.49 26.9 77.44 17.35 21.96 41.9 37.62 69.12 44.09l3.47.82 3.47-.82c27.22-6.47 51.77-22.13 69.12-44.09 17.35-21.95 26.9-49.45 26.9-77.44v-80.81zm69.49 133.01c0 42.96-28.4 80.06-69.49 91.45-41.09-11.39-69.49-48.49-69.49-91.45v-62.67l69.49-36.46 69.49 36.46z" fill="#badb47"/><path d="m512 191.09v80.81c0 27.99-9.55 55.49-26.9 77.44-17.35 21.96-41.9 37.62-69.12 44.09l-3.47.82v-30.9c41.09-11.39 69.49-48.49 69.49-91.45v-62.67l-69.49-36.46v-33.88z" fill="#92ca32"/><path d="m461.18 254.94-48.67 48.68-7.86 7.86-40.75-40.21 21.08-21.35 19.53 19.27 8-8 27.46-27.46z" fill="#f3f6ff"/><path d="m461.18 254.94-48.67 48.68v-42.43l27.46-27.46z" fill="#cddbf9"/></g></svg>