<svg id="Capa_1" enable-background="new 0 0 512 512" height="512" viewBox="0 0 512 512" width="512" xmlns="http://www.w3.org/2000/svg"><g><path d="m440.479 117v395h-368.96v-512h251.97l42.21 71.5z" fill="#f3f6ff"/><path d="m440.479 117v395h-184.48v-512h67.49l42.21 71.5z" fill="#cddbf9"/><path d="m323.484 0v117h116.997z" fill="#afc2e8"/><path d="m143.499 56.5h141.5v30h-141.5z" fill="#3c4a83"/><path d="m143.499 118h141.5v30h-141.5z" fill="#3c4a83"/><path d="m255.999 56.5h29v30h-29z" fill="#2a386b"/><path d="m255.999 118h29v30h-29z" fill="#2a386b"/><path d="m340.489 264.285v71.74c0 25.46-8.74 49.24-23.67 68.14s-36.05 32.9-60.82 38.79c-49.53-11.77-84.49-56.02-84.49-106.93v-71.74l84.49-44.33z" fill="#92ca32"/><path d="m340.489 264.285v71.74c0 25.46-8.74 49.24-23.67 68.14s-36.05 32.9-60.82 38.79v-223z" fill="#67b821"/><path d="m255.999 203.015-99.49 52.2v80.81c0 27.99 9.55 55.49 26.9 77.44 17.35 21.96 41.9 37.62 69.12 44.09l3.47.82 3.47-.82c27.22-6.47 51.77-22.13 69.12-44.09 17.35-21.95 26.9-49.45 26.9-77.44v-80.81zm69.49 133.01c0 42.96-28.4 80.06-69.49 91.45-41.09-11.39-69.49-48.49-69.49-91.45v-62.67l69.49-36.46 69.49 36.46z" fill="#badb47"/><path d="m355.489 255.215v80.81c0 27.99-9.55 55.49-26.9 77.44-17.35 21.96-41.9 37.62-69.12 44.09l-3.47.82v-30.9c41.09-11.39 69.49-48.49 69.49-91.45v-62.67l-69.49-36.46v-33.88z" fill="#92ca32"/><path d="m304.669 319.065-48.67 48.68-7.86 7.86-40.75-40.21 21.08-21.35 19.53 19.27 8-8 27.46-27.46z" fill="#f3f6ff"/><path d="m304.669 319.065-48.67 48.68v-42.43l27.46-27.46z" fill="#cddbf9"/></g></svg>