<?xml version="1.0"?>
<svg xmlns="http://www.w3.org/2000/svg" id="Capa_1" enable-background="new 0 0 512.019 512.019" height="512px" viewBox="0 0 512.019 512.019" width="512px"><g><g id="XMLID_320_"><g id="XMLID_1045_"><path id="XMLID_1619_" d="m10 98.009h492v320h-492z" fill="#e2e9ee" data-original="#E2E9EE"/><path id="XMLID_1039_" d="m10 10.009h492v88h-492z" fill="#99ebfa" data-original="#99EBFA"/><g id="XMLID_1230_"><g id="XMLID_1245_"><path id="XMLID_1256_" d="m130.5 282.009h251v88h-251z" fill="#d5ea79" data-original="#D5EA79"/><g id="XMLID_1246_" fill="#ff7b79"><path id="XMLID_1255_" d="" data-original="#FF7B79" class="active-path" style="fill:#E63636" data-old_color="#FF7B79"/><path id="XMLID_1250_" d="" data-original="#FF7B79" class="active-path" style="fill:#E63636" data-old_color="#FF7B79"/><path id="XMLID_1249_" d="" data-original="#FF7B79" class="active-path" style="fill:#E63636" data-old_color="#FF7B79"/><path id="XMLID_1247_" d="" data-original="#FF7B79" class="active-path" style="fill:#E63636" data-old_color="#FF7B79"/></g></g><g id="XMLID_1232_"><path id="XMLID_1244_" d="m130.5 146.009h251v88h-251z" fill="#d5ea79" data-original="#D5EA79"/><g id="XMLID_1234_" fill="#ff7b79"><path id="XMLID_1241_" d="" data-original="#FF7B79" class="active-path" style="fill:#E63636" data-old_color="#FF7B79"/><path id="XMLID_1238_" d="" data-original="#FF7B79" class="active-path" style="fill:#E63636" data-old_color="#FF7B79"/><path id="XMLID_1237_" d="" data-original="#FF7B79" class="active-path" style="fill:#E63636" data-old_color="#FF7B79"/><path id="XMLID_1236_" d="" data-original="#FF7B79" class="active-path" style="fill:#E63636" data-old_color="#FF7B79"/></g></g></g></g><g id="XMLID_2435_"><path id="XMLID_2434_" d="m260.469 459.566 94.344-163.409c10.891-18.864 38.118-18.864 49.009 0l94.344 163.409c10.891 18.864-2.723 42.443-24.505 42.443h-188.687c-21.782 0-35.396-23.579-24.505-42.443z" fill="#ff7b79" data-original="#FF7B79" class="active-path" style="fill:#E63636" data-old_color="#ff7b79"/><g id="XMLID_192_"><path id="XMLID_193_" d="m112.17 44.009c-2.64 0-5.21 1.07-7.07 2.93-1.87 1.86-2.93 4.44-2.93 7.07s1.06 5.21 2.93 7.07c1.86 1.86 4.431 2.93 7.07 2.93 2.63 0 5.2-1.07 7.07-2.93 1.859-1.86 2.93-4.44 2.93-7.07s-1.07-5.21-2.93-7.07-4.44-2.93-7.07-2.93z" data-original="#000000" class="" style="fill:#000000"/><path id="XMLID_313_" d="m64 44.009c-2.63 0-5.21 1.07-7.07 2.93s-2.93 4.44-2.93 7.07 1.069 5.21 2.93 7.07c1.86 1.86 4.44 2.93 7.07 2.93s5.21-1.07 7.069-2.93c1.86-1.86 2.931-4.44 2.931-7.07s-1.07-5.21-2.931-7.07c-1.859-1.86-4.439-2.93-7.069-2.93z" data-original="#000000" class="" style="fill:#000000"/><path id="XMLID_314_" d="m160.33 44.009c-2.63 0-5.21 1.07-7.07 2.93s-2.93 4.44-2.93 7.07 1.069 5.21 2.93 7.07c1.86 1.86 4.44 2.93 7.07 2.93 2.64 0 5.21-1.07 7.069-2.93 1.87-1.86 2.931-4.44 2.931-7.07s-1.061-5.21-2.931-7.07c-1.859-1.86-4.429-2.93-7.069-2.93z" data-original="#000000" class="" style="fill:#000000"/><path id="XMLID_328_" d="m185.5 316.009c-2.63 0-5.21 1.07-7.07 2.93s-2.93 4.44-2.93 7.07 1.069 5.21 2.93 7.07c1.86 1.86 4.44 2.93 7.07 2.93s5.21-1.07 7.069-2.93c1.86-1.86 2.931-4.44 2.931-7.07s-1.07-5.21-2.931-7.07c-1.859-1.86-4.439-2.93-7.069-2.93z" data-original="#000000" class="" style="fill:#000000"/><path id="XMLID_329_" d="m232.5 316.009c-2.63 0-5.21 1.07-7.07 2.93s-2.93 4.44-2.93 7.07 1.069 5.21 2.93 7.07c1.86 1.86 4.44 2.93 7.07 2.93s5.21-1.07 7.069-2.93c1.86-1.86 2.931-4.44 2.931-7.07s-1.07-5.21-2.931-7.07c-1.859-1.86-4.439-2.93-7.069-2.93z" data-original="#000000" class="" style="fill:#000000"/><path id="XMLID_330_" d="m286.569 318.939c-1.859-1.86-4.439-2.93-7.069-2.93s-5.21 1.07-7.07 2.93-2.93 4.44-2.93 7.07 1.069 5.21 2.93 7.07c1.86 1.86 4.44 2.93 7.07 2.93s5.21-1.07 7.069-2.93c1.86-1.86 2.931-4.44 2.931-7.07s-1.07-5.21-2.931-7.07z" data-original="#000000" class="" style="fill:#000000"/><path id="XMLID_333_" d="m130.5 244.009h251c5.522 0 10-4.477 10-10v-88c0-5.523-4.478-10-10-10h-251c-5.522 0-10 4.477-10 10v88c0 5.523 4.478 10 10 10zm10-88h231v68h-231z" data-original="#000000" class="" style="fill:#000000"/><path id="XMLID_334_" d="m185.5 180.009c-2.63 0-5.21 1.07-7.07 2.93s-2.93 4.44-2.93 7.07 1.069 5.21 2.93 7.07c1.86 1.86 4.44 2.93 7.07 2.93s5.21-1.07 7.069-2.93c1.86-1.86 2.931-4.44 2.931-7.07s-1.07-5.21-2.931-7.07c-1.859-1.86-4.439-2.93-7.069-2.93z" data-original="#000000" class="" style="fill:#000000"/><path id="XMLID_335_" d="m232.5 180.009c-2.63 0-5.21 1.07-7.07 2.93s-2.93 4.44-2.93 7.07 1.069 5.21 2.93 7.07c1.86 1.86 4.44 2.93 7.07 2.93s5.21-1.07 7.069-2.93c1.86-1.86 2.931-4.44 2.931-7.07s-1.07-5.21-2.931-7.07c-1.859-1.86-4.439-2.93-7.069-2.93z" data-original="#000000" class="" style="fill:#000000"/><path id="XMLID_336_" d="m279.5 180.009c-2.63 0-5.21 1.07-7.07 2.93s-2.93 4.44-2.93 7.07 1.069 5.21 2.93 7.07c1.86 1.86 4.44 2.93 7.07 2.93s5.21-1.07 7.069-2.93c1.86-1.86 2.931-4.44 2.931-7.07s-1.07-5.21-2.931-7.07c-1.859-1.86-4.439-2.93-7.069-2.93z" data-original="#000000" class="" style="fill:#000000"/><path id="XMLID_337_" d="m326.5 180.009c-2.63 0-5.21 1.07-7.07 2.93s-2.93 4.44-2.93 7.07 1.069 5.21 2.93 7.07c1.86 1.86 4.44 2.93 7.07 2.93s5.21-1.07 7.069-2.93c1.86-1.86 2.931-4.44 2.931-7.07s-1.07-5.21-2.931-7.07c-1.859-1.86-4.439-2.93-7.069-2.93z" data-original="#000000" class="" style="fill:#000000"/><path id="XMLID_338_" d="m256.13 108.009c2.63 0 5.21-1.07 7.07-2.93 1.859-1.86 2.93-4.44 2.93-7.07s-1.07-5.21-2.93-7.07-4.44-2.93-7.07-2.93-5.21 1.07-7.08 2.93c-1.86 1.86-2.92 4.44-2.92 7.07s1.06 5.21 2.92 7.07c1.87 1.86 4.45 2.93 7.08 2.93z" data-original="#000000" class="" style="fill:#000000"/><path id="XMLID_341_" d="m506.827 454.566-15.332-26.557h10.505c5.522 0 10-4.477 10-10v-408c0-5.523-4.478-10-10-10h-492c-5.523 0-10 4.477-10 10v408c0 5.523 4.477 10 10 10h257.142l-15.332 26.557c-6.923 11.989-6.923 26.306-.001 38.296 6.923 11.99 19.32 19.148 33.165 19.148h188.689c13.845 0 26.242-7.158 33.165-19.148 6.921-11.99 6.921-26.306-.001-38.296zm-486.827-46.557v-300h191.127c5.522 0 10-4.477 10-10s-4.478-10-10-10h-191.127v-68h472v68h-190.873c-5.523 0-10 4.477-10 10s4.477 10 10 10h190.873v300h-12.052l-67.464-116.852c-6.923-11.99-19.321-19.148-33.166-19.148h-248.818c-5.522 0-10 4.477-10 10v88c0 5.523 4.478 10 10 10h164.355l-16.166 28zm286.402-48h-165.902v-68h205.161zm183.105 122.853c-3.308 5.728-9.23 9.148-15.845 9.148h-188.688c-6.614 0-12.537-3.42-15.844-9.148-3.308-5.728-3.308-12.567 0-18.296l94.344-163.409c3.307-5.728 9.229-9.147 15.844-9.148 6.615 0 12.538 3.42 15.846 9.148l94.344 163.409c3.306 5.728 3.306 12.568-.001 18.296z" data-original="#000000" class="" style="fill:#000000"/><path id="XMLID_344_" d="m379.318 422.219c5.522 0 10-4.477 10-10v-43.884c0-5.523-4.478-10-10-10s-10 4.477-10 10v43.884c0 5.523 4.478 10 10 10z" data-original="#000000" class="" style="fill:#000000"/><path id="XMLID_345_" d="m379.319 441.479c-2.63 0-5.21 1.07-7.069 2.93-1.86 1.87-2.931 4.44-2.931 7.07 0 2.64 1.07 5.22 2.931 7.08 1.859 1.86 4.43 2.92 7.069 2.92 2.631 0 5.211-1.06 7.07-2.92 1.86-1.87 2.93-4.44 2.93-7.08 0-2.62-1.069-5.2-2.93-7.07-1.869-1.86-4.439-2.93-7.07-2.93z" data-original="#000000" class="" style="fill:#000000"/></g></g></g></g> </svg>
