<svg height="512" viewBox="0 0 512 512" width="512" xmlns="http://www.w3.org/2000/svg"><g><g><path d="m80 96h352a40 40 0 0 1 40 40v224a0 0 0 0 1 0 0h-432a0 0 0 0 1 0 0v-224a40 40 0 0 1 40-40z" fill="#83d8f4"/><path d="m72 128h168v144h-168z" fill="#3d9ae2"/><path d="m400 288h40v-119l-40-41h-88v48z" fill="#ffeb99"/><path d="m440 176h-48v-48z" fill="#ffda44"/><path d="m472 416h-432a24 24 0 0 1 -24-24v-32h480v32a24 24 0 0 1 -24 24z" fill="#57565c"/><path d="m288 384h-64l-8-24h80z" fill="#2d2d30"/><path d="m176 168a.031.031 0 0 0 -.02.01c-.98.49-32.23 15.99-47.98 15.99v-16a16 16 0 0 1 16-16h16a16 16 0 0 1 16 16z" fill="#ffda44"/><path d="m176 168v32a16 16 0 0 1 -16 16h-16a16 16 0 0 1 -16-16v-16c15.75 0 47-15.5 47.98-15.99a.031.031 0 0 1 .02-.01z" fill="#ffdaaa"/><path d="m168 216v16q-16 16-32 0v-16z" fill="#ffdaaa"/><path d="m168 232 40 16v24h-112v-24l40-16z" fill="#898890"/><path d="m360 176h-88v160h128v-119z" fill="#ffeb99"/><path d="m400 224h-48v-48z" fill="#ffda44"/></g><g><path d="m496 352h-16v-216a48.051 48.051 0 0 0 -48-48h-352a48.051 48.051 0 0 0 -48 48v216h-16a8 8 0 0 0 -8 8v32a32.036 32.036 0 0 0 32 32h432a32.036 32.036 0 0 0 32-32v-32a8 8 0 0 0 -8-8zm-448-216a32.036 32.036 0 0 1 32-32h352a32.036 32.036 0 0 1 32 32v216h-416zm236.9 232-2.67 8h-52.46l-2.67-8zm203.1 24a16.021 16.021 0 0 1 -16 16h-432a16.021 16.021 0 0 1 -16-16v-24h186.23l6.18 18.53a8 8 0 0 0 7.59 5.47h64a8 8 0 0 0 7.59-5.47l6.18-18.53h186.23z"/><path d="m144 376h-80a8 8 0 0 0 0 16h80a8 8 0 0 0 0-16z"/><path d="m176 376h-8a8 8 0 0 0 0 16h8a8 8 0 0 0 0-16z"/><path d="m240 120h-168a8 8 0 0 0 -8 8v144a8 8 0 0 0 8 8h168a8 8 0 0 0 8-8v-144a8 8 0 0 0 -8-8zm-40 144h-96v-10.58l30.39-12.16c5.69 4.48 11.65 6.72 17.61 6.72s11.92-2.24 17.61-6.72l30.39 12.16zm-32-83.48v19.48a8.011 8.011 0 0 1 -8 8h-16a8.011 8.011 0 0 1 -8-8v-8.82c10.49-1.9 23.02-6.75 32-10.66zm-32-5.64v-6.88a8.011 8.011 0 0 1 8-8h16a8.013 8.013 0 0 1 6.67 3.59c-8.3 3.8-20.92 9.03-30.67 11.29zm24 49.12v4.49c-5.65 4.68-10.35 4.68-16 0v-4.49zm72 40h-16v-16a8.006 8.006 0 0 0 -5.03-7.43l-34.97-13.99v-8.71a23.937 23.937 0 0 0 8-17.87v-32a24.032 24.032 0 0 0 -24-24h-16a24.032 24.032 0 0 0 -24 24v32a23.937 23.937 0 0 0 8 17.87v8.71l-34.97 13.99a8.006 8.006 0 0 0 -5.03 7.43v16h-8v-128h152z"/><path d="m208 288h-136a8 8 0 0 0 0 16h136a8 8 0 0 0 0-16z"/><path d="m112 312h-40a8 8 0 0 0 0 16h40a8 8 0 0 0 0-16z"/><path d="m144 312h-8a8 8 0 0 0 0 16h8a8 8 0 0 0 0-16z"/><path d="m272 344h128a8 8 0 0 0 8-8v-40h32a8 8 0 0 0 8-8v-119a8 8 0 0 0 -2.273-5.586l-40-41a8 8 0 0 0 -5.727-2.414h-88a8 8 0 0 0 -8 8v40h-32a8 8 0 0 0 -8 8v160a8 8 0 0 0 8 8zm88-156.544 27.848 28.544h-27.848zm67.848-19.456h-27.848v-28.544zm-107.848-32h64v40a8 8 0 0 0 8 8h40v96h-24v-63a8 8 0 0 0 -2.273-5.586l-40-41a8 8 0 0 0 -5.727-2.414h-40zm-40 48h64v40a8 8 0 0 0 8 8h40v96h-112z"/></g></g></svg>